<?xml version="1.0" encoding="UTF-8" standalone="no"?>
<svg
   xmlns:dc="http://purl.org/dc/elements/1.1/"
   xmlns:cc="http://creativecommons.org/ns#"
   xmlns:rdf="http://www.w3.org/1999/02/22-rdf-syntax-ns#"
   xmlns:svg="http://www.w3.org/2000/svg"
   xmlns="http://www.w3.org/2000/svg"
   xmlns:sodipodi="http://sodipodi.sourceforge.net/DTD/sodipodi-0.dtd"
   xmlns:inkscape="http://www.inkscape.org/namespaces/inkscape"
   version="1.1"
   id="svg14599"
   viewBox="0 0 883.62556 705.32918"
   height="199.05957mm"
   width="249.37877mm"
   inkscape:version="0.91 r13725"
   sodipodi:docname="finalLOGO(white_background).svg"
   inkscape:export-filename="/home/chkr/wikidata/tcb/shirt/logoFinal.png"
   inkscape:export-xdpi="90"
   inkscape:export-ydpi="90">
  <sodipodi:namedview
     pagecolor="#ffffff"
     bordercolor="#666666"
     borderopacity="1"
     objecttolerance="10"
     gridtolerance="10"
     guidetolerance="10"
     inkscape:pageopacity="0"
     inkscape:pageshadow="2"
     inkscape:window-width="1920"
     inkscape:window-height="1163"
     id="namedview85"
     showgrid="false"
     inkscape:zoom="0.70710678"
     inkscape:cx="710.82507"
     inkscape:cy="146.15844"
     inkscape:window-x="1920"
     inkscape:window-y="0"
     inkscape:window-maximized="1"
     inkscape:current-layer="g9853"
     fit-margin-top="0"
     fit-margin-left="0"
     fit-margin-right="0"
     fit-margin-bottom="0" />
  <defs
     id="defs14601" />
  <metadata
     id="metadata14604">
    <rdf:RDF>
      <cc:Work
         rdf:about="">
        <dc:format>image/svg+xml</dc:format>
        <dc:type
           rdf:resource="http://purl.org/dc/dcmitype/StillImage" />
        <dc:title />
      </cc:Work>
    </rdf:RDF>
  </metadata>
  <g
     transform="translate(65.535884,-2.4360305)"
     id="layer1"
     inkscape:export-xdpi="90"
     inkscape:export-ydpi="90">
    <g
       transform="matrix(1.133836,0,0,1.133836,-719.12085,387.39747)"
       id="g9853"
       style="display:inline">
      <path
         d="m 674.93894,85.66292 0,15.78419 2.10456,0 0,-15.78419 -2.10456,0 z"
         style="color:#000000;font-style:normal;font-variant:normal;font-weight:normal;font-stretch:normal;font-size:21.04557419px;line-height:125%;font-family:Stark;-inkscape-font-specification:Stark;text-align:end;letter-spacing:0px;word-spacing:0px;writing-mode:lr-tb;text-anchor:end;clip-rule:nonzero;visibility:visible;isolation:auto;mix-blend-mode:normal;color-interpolation:sRGB;color-interpolation-filters:linearRGB;solid-color:#000000;solid-opacity:1;fill:#969696;fill-opacity:1;fill-rule:nonzero;stroke:none;stroke-width:1px;stroke-linecap:butt;stroke-linejoin:miter;stroke-miterlimit:4;stroke-dasharray:none;stroke-dashoffset:0;stroke-opacity:1;color-rendering:auto;image-rendering:auto;shape-rendering:auto;text-rendering:auto"
         id="path7660-7-9-0"
         inkscape:connector-curvature="0" />
      <path
         d="m 681.03065,88.6514 5.78753,5.78753 5.78753,-5.78753 0,12.79571 2.10456,0 0,-15.78419 -2.10456,0 -5.78753,5.78754 -5.78753,-5.78754 -2.10456,0 0,15.78419 2.10456,0 0,-12.79571 z"
         style="color:#000000;font-style:normal;font-variant:normal;font-weight:normal;font-stretch:normal;font-size:21.04557419px;line-height:125%;font-family:Stark;-inkscape-font-specification:Stark;text-align:end;letter-spacing:0px;word-spacing:0px;writing-mode:lr-tb;text-anchor:end;clip-rule:nonzero;visibility:visible;isolation:auto;mix-blend-mode:normal;color-interpolation:sRGB;color-interpolation-filters:linearRGB;solid-color:#000000;solid-opacity:1;fill:#969696;fill-opacity:1;fill-rule:nonzero;stroke:none;stroke-width:1px;stroke-linecap:butt;stroke-linejoin:miter;stroke-miterlimit:4;stroke-dasharray:none;stroke-dashoffset:0;stroke-opacity:1;color-rendering:auto;image-rendering:auto;shape-rendering:auto;text-rendering:auto"
         id="path7662-2-0-5"
         inkscape:connector-curvature="0" />
      <path
         d="m 707.03476,95.09134 c 1.07332,-1.07332 1.6205,-2.37815 1.6205,-3.91448 0,-1.53632 -0.54718,-2.8201 -1.6205,-3.89343 -1.07333,-1.07332 -2.37815,-1.62051 -3.91448,-1.62051 l -6.31367,0 0,15.78419 2.10455,0 0,-4.73526 4.20912,0 c 1.53633,0 2.84115,-0.54718 3.91448,-1.62051 z m -1.49424,-6.33472 c 0.67346,0.67346 1.01019,1.47319 1.01019,2.42024 0,0.94706 -0.33673,1.74679 -1.01019,2.42025 -0.65241,0.67345 -1.47319,1.01018 -2.42024,1.01018 l -4.20912,0 0,-6.83981 4.20912,0 c 0.94705,0 1.76783,0.33673 2.42024,0.98914 z"
         style="color:#000000;font-style:normal;font-variant:normal;font-weight:normal;font-stretch:normal;font-size:21.04557419px;line-height:125%;font-family:Stark;-inkscape-font-specification:Stark;text-align:end;letter-spacing:0px;word-spacing:0px;writing-mode:lr-tb;text-anchor:end;clip-rule:nonzero;visibility:visible;isolation:auto;mix-blend-mode:normal;color-interpolation:sRGB;color-interpolation-filters:linearRGB;solid-color:#000000;solid-opacity:1;fill:#969696;fill-opacity:1;fill-rule:nonzero;stroke:none;stroke-width:1px;stroke-linecap:butt;stroke-linejoin:miter;stroke-miterlimit:4;stroke-dasharray:none;stroke-dashoffset:0;stroke-opacity:1;color-rendering:auto;image-rendering:auto;shape-rendering:auto;text-rendering:auto"
         id="path7664-01-8-5"
         inkscape:connector-curvature="0" />
      <path
         d="m 715.85515,96.71185 3.74611,4.73526 2.71488,0 -3.89343,-4.90362 c 1.1996,-0.31569 2.18874,-0.94705 2.96743,-1.9362 0.79973,-1.01018 1.1996,-2.14665 1.1996,-3.43043 0,-1.53632 -0.54719,-2.8201 -1.62051,-3.89343 -1.07333,-1.07332 -2.37815,-1.62051 -3.91448,-1.62051 l -6.31367,0 0,15.78419 2.10456,0 0,-4.73526 3.00951,0 z m 3.61984,-7.95523 c 0.67346,0.67346 1.01019,1.47319 1.01019,2.42024 0,0.94706 -0.33673,1.74679 -1.01019,2.42025 -0.65241,0.67345 -1.47319,1.01018 -2.42024,1.01018 l -4.20911,0 0,-6.83981 4.20911,0 c 0.94705,0 1.76783,0.33673 2.42024,0.98914 z"
         style="color:#000000;font-style:normal;font-variant:normal;font-weight:normal;font-stretch:normal;font-size:21.04557419px;line-height:125%;font-family:Stark;-inkscape-font-specification:Stark;text-align:end;letter-spacing:0px;word-spacing:0px;writing-mode:lr-tb;text-anchor:end;clip-rule:nonzero;visibility:visible;isolation:auto;mix-blend-mode:normal;color-interpolation:sRGB;color-interpolation-filters:linearRGB;solid-color:#000000;solid-opacity:1;fill:#969696;fill-opacity:1;fill-rule:nonzero;stroke:none;stroke-width:1px;stroke-linecap:butt;stroke-linejoin:miter;stroke-miterlimit:4;stroke-dasharray:none;stroke-dashoffset:0;stroke-opacity:1;color-rendering:auto;image-rendering:auto;shape-rendering:auto;text-rendering:auto"
         id="path7666-6-1-2"
         inkscape:connector-curvature="0" />
      <path
         d="m 726.99056,87.97794 c -1.53632,1.53632 -2.31501,3.40938 -2.31501,5.57707 0,2.1677 0.77869,4.04076 2.31501,5.57708 1.53633,1.53633 3.40939,2.31502 5.57708,2.31502 2.16769,0 4.04075,-0.77869 5.57708,-2.31502 1.53632,-1.53632 2.31501,-3.40938 2.31501,-5.57708 0,-2.16769 -0.77869,-4.04075 -2.31501,-5.57707 -1.53633,-1.53633 -3.40939,-2.31502 -5.57708,-2.31502 -2.16769,0 -4.04075,0.77869 -5.57708,2.31502 z m 1.49424,9.65992 c -1.13646,-1.11542 -1.70469,-2.48338 -1.70469,-4.08285 0,-1.59946 0.56823,-2.96742 1.70469,-4.10388 1.11541,-1.11542 2.48338,-1.68365 4.08284,-1.68365 1.59946,0 2.96743,0.56823 4.10389,1.68365 1.11541,1.13646 1.68364,2.50442 1.68364,4.10388 0,1.59947 -0.56823,2.96743 -1.68364,4.08285 -1.13646,1.13646 -2.50443,1.70469 -4.10389,1.70469 -1.59946,0 -2.96743,-0.56823 -4.08284,-1.70469 z"
         style="color:#000000;font-style:normal;font-variant:normal;font-weight:normal;font-stretch:normal;font-size:21.04557419px;line-height:125%;font-family:Stark;-inkscape-font-specification:Stark;text-align:end;letter-spacing:0px;word-spacing:0px;writing-mode:lr-tb;text-anchor:end;clip-rule:nonzero;visibility:visible;isolation:auto;mix-blend-mode:normal;color-interpolation:sRGB;color-interpolation-filters:linearRGB;solid-color:#000000;solid-opacity:1;fill:#969696;fill-opacity:1;fill-rule:nonzero;stroke:none;stroke-width:1px;stroke-linecap:butt;stroke-linejoin:miter;stroke-miterlimit:4;stroke-dasharray:none;stroke-dashoffset:0;stroke-opacity:1;color-rendering:auto;image-rendering:auto;shape-rendering:auto;text-rendering:auto"
         id="path7668-1-3-9"
         inkscape:connector-curvature="0" />
      <path
         d="m 748.78589,98.79536 -5.70335,-13.13244 -2.29397,0 6.83981,15.78419 2.29397,0 6.83981,-15.78419 -2.29397,0 -5.6823,13.13244 z"
         style="color:#000000;font-style:normal;font-variant:normal;font-weight:normal;font-stretch:normal;font-size:21.04557419px;line-height:125%;font-family:Stark;-inkscape-font-specification:Stark;text-align:end;letter-spacing:0px;word-spacing:0px;writing-mode:lr-tb;text-anchor:end;clip-rule:nonzero;visibility:visible;isolation:auto;mix-blend-mode:normal;color-interpolation:sRGB;color-interpolation-filters:linearRGB;solid-color:#000000;solid-opacity:1;fill:#969696;fill-opacity:1;fill-rule:nonzero;stroke:none;stroke-width:1px;stroke-linecap:butt;stroke-linejoin:miter;stroke-miterlimit:4;stroke-dasharray:none;stroke-dashoffset:0;stroke-opacity:1;color-rendering:auto;image-rendering:auto;shape-rendering:auto;text-rendering:auto"
         id="path7670-9-1-0"
         inkscape:connector-curvature="0" />
      <path
         d="m 758.66909,85.66292 0,15.78419 2.10455,0 0,-15.78419 -2.10455,0 z"
         style="color:#000000;font-style:normal;font-variant:normal;font-weight:normal;font-stretch:normal;font-size:21.04557419px;line-height:125%;font-family:Stark;-inkscape-font-specification:Stark;text-align:end;letter-spacing:0px;word-spacing:0px;writing-mode:lr-tb;text-anchor:end;clip-rule:nonzero;visibility:visible;isolation:auto;mix-blend-mode:normal;color-interpolation:sRGB;color-interpolation-filters:linearRGB;solid-color:#000000;solid-opacity:1;fill:#969696;fill-opacity:1;fill-rule:nonzero;stroke:none;stroke-width:1px;stroke-linecap:butt;stroke-linejoin:miter;stroke-miterlimit:4;stroke-dasharray:none;stroke-dashoffset:0;stroke-opacity:1;color-rendering:auto;image-rendering:auto;shape-rendering:auto;text-rendering:auto"
         id="path7672-4-1-2"
         inkscape:connector-curvature="0" />
      <path
         d="m 762.65624,85.66292 0,15.78419 2.10456,0 0,-11.9118 7.8079,11.9118 2.10456,0 0,-15.78419 -2.10456,0 0,11.93285 -7.8079,-11.93285 -2.10456,0 z"
         style="color:#000000;font-style:normal;font-variant:normal;font-weight:normal;font-stretch:normal;font-size:21.04557419px;line-height:125%;font-family:Stark;-inkscape-font-specification:Stark;text-align:end;letter-spacing:0px;word-spacing:0px;writing-mode:lr-tb;text-anchor:end;clip-rule:nonzero;visibility:visible;isolation:auto;mix-blend-mode:normal;color-interpolation:sRGB;color-interpolation-filters:linearRGB;solid-color:#000000;solid-opacity:1;fill:#969696;fill-opacity:1;fill-rule:nonzero;stroke:none;stroke-width:1px;stroke-linecap:butt;stroke-linejoin:miter;stroke-miterlimit:4;stroke-dasharray:none;stroke-dashoffset:0;stroke-opacity:1;color-rendering:auto;image-rendering:auto;shape-rendering:auto;text-rendering:auto"
         id="path7674-9-0-8"
         inkscape:connector-curvature="0" />
      <path
         d="m 784.68832,94.60729 5.68231,0 c -0.2315,1.1996 -0.75764,2.20979 -1.59947,3.03057 -1.11541,1.13646 -2.48338,1.70469 -4.08284,1.70469 -1.59946,0 -2.96742,-0.56823 -4.08284,-1.70469 -1.13646,-1.11542 -1.70469,-2.48338 -1.70469,-4.08285 0,-1.59946 0.56823,-2.96742 1.70469,-4.08284 1.11542,-1.13646 2.48338,-1.70469 4.08284,-1.70469 1.59946,0 2.96743,0.56823 4.08284,1.70469 l 1.49424,-1.49423 c -1.53633,-1.53633 -3.38834,-2.31502 -5.57708,-2.31502 -2.16769,0 -4.04075,0.77869 -5.57708,2.31502 -1.53632,1.53632 -2.31501,3.38834 -2.31501,5.57707 0,2.1677 0.77869,4.04076 2.31501,5.57708 1.53633,1.53633 3.40939,2.31502 5.57708,2.31502 2.18874,0 4.04075,-0.77869 5.57708,-2.31502 1.53633,-1.53632 2.31501,-3.74611 2.31501,-6.62935 l -7.89209,0 0,2.10455 z"
         style="color:#000000;font-style:normal;font-variant:normal;font-weight:normal;font-stretch:normal;font-size:21.04557419px;line-height:125%;font-family:Stark;-inkscape-font-specification:Stark;text-align:end;letter-spacing:0px;word-spacing:0px;writing-mode:lr-tb;text-anchor:end;clip-rule:nonzero;visibility:visible;isolation:auto;mix-blend-mode:normal;color-interpolation:sRGB;color-interpolation-filters:linearRGB;solid-color:#000000;solid-opacity:1;fill:#969696;fill-opacity:1;fill-rule:nonzero;stroke:none;stroke-width:1px;stroke-linecap:butt;stroke-linejoin:miter;stroke-miterlimit:4;stroke-dasharray:none;stroke-dashoffset:0;stroke-opacity:1;color-rendering:auto;image-rendering:auto;shape-rendering:auto;text-rendering:auto"
         id="path7676-9-3-3"
         inkscape:connector-curvature="0" />
      <path
         d="m 802.0838,88.6514 5.78754,5.78753 5.78753,-5.78753 0,12.79571 2.10456,0 0,-15.78419 -2.10456,0 -5.78753,5.78754 -5.78754,-5.78754 -2.10456,0 0,15.78419 2.10456,0 0,-12.79571 z"
         style="color:#000000;font-style:normal;font-variant:normal;font-weight:normal;font-stretch:normal;font-size:21.04557419px;line-height:125%;font-family:Stark;-inkscape-font-specification:Stark;text-align:end;letter-spacing:0px;word-spacing:0px;writing-mode:lr-tb;text-anchor:end;clip-rule:nonzero;visibility:visible;isolation:auto;mix-blend-mode:normal;color-interpolation:sRGB;color-interpolation-filters:linearRGB;solid-color:#000000;solid-opacity:1;fill:#969696;fill-opacity:1;fill-rule:nonzero;stroke:none;stroke-width:1px;stroke-linecap:butt;stroke-linejoin:miter;stroke-miterlimit:4;stroke-dasharray:none;stroke-dashoffset:0;stroke-opacity:1;color-rendering:auto;image-rendering:auto;shape-rendering:auto;text-rendering:auto"
         id="path7678-6-4-8"
         inkscape:connector-curvature="0" />
      <path
         d="m 817.85976,85.66292 0,15.78419 8.94437,0 0,-2.10456 -6.83981,0 0,-4.73526 4.73525,0 0,-2.10455 -4.73525,0 0,-4.73526 6.83981,0 0,-2.10456 -8.94437,0 z"
         style="color:#000000;font-style:normal;font-variant:normal;font-weight:normal;font-stretch:normal;font-size:21.04557419px;line-height:125%;font-family:Stark;-inkscape-font-specification:Stark;text-align:end;letter-spacing:0px;word-spacing:0px;writing-mode:lr-tb;text-anchor:end;clip-rule:nonzero;visibility:visible;isolation:auto;mix-blend-mode:normal;color-interpolation:sRGB;color-interpolation-filters:linearRGB;solid-color:#000000;solid-opacity:1;fill:#969696;fill-opacity:1;fill-rule:nonzero;stroke:none;stroke-width:1px;stroke-linecap:butt;stroke-linejoin:miter;stroke-miterlimit:4;stroke-dasharray:none;stroke-dashoffset:0;stroke-opacity:1;color-rendering:auto;image-rendering:auto;shape-rendering:auto;text-rendering:auto"
         id="path7680-94-0-0"
         inkscape:connector-curvature="0" />
      <path
         d="m 840.28152,99.13209 c 1.53632,-1.53632 2.31501,-3.40938 2.31501,-5.57708 0,-2.16769 -0.77869,-4.04075 -2.31501,-5.57707 -1.53633,-1.53633 -3.40939,-2.31502 -5.57708,-2.31502 l -5.78753,0 0,15.78419 5.78753,0 c 2.16769,0 4.04075,-0.77869 5.57708,-2.31502 z m -5.57708,0.21046 -3.68298,0 0,-11.57507 3.68298,0 c 1.59946,0 2.96742,0.56823 4.10389,1.68365 1.11541,1.13646 1.68364,2.50442 1.68364,4.10388 0,1.59947 -0.56823,2.96743 -1.68364,4.08285 -1.13647,1.13646 -2.50443,1.70469 -4.10389,1.70469 z"
         style="color:#000000;font-style:normal;font-variant:normal;font-weight:normal;font-stretch:normal;font-size:21.04557419px;line-height:125%;font-family:Stark;-inkscape-font-specification:Stark;text-align:end;letter-spacing:0px;word-spacing:0px;writing-mode:lr-tb;text-anchor:end;clip-rule:nonzero;visibility:visible;isolation:auto;mix-blend-mode:normal;color-interpolation:sRGB;color-interpolation-filters:linearRGB;solid-color:#000000;solid-opacity:1;fill:#969696;fill-opacity:1;fill-rule:nonzero;stroke:none;stroke-width:1px;stroke-linecap:butt;stroke-linejoin:miter;stroke-miterlimit:4;stroke-dasharray:none;stroke-dashoffset:0;stroke-opacity:1;color-rendering:auto;image-rendering:auto;shape-rendering:auto;text-rendering:auto"
         id="path7682-2-3-4"
         inkscape:connector-curvature="0" />
      <path
         d="m 844.49556,85.66292 0,15.78419 2.10456,0 0,-15.78419 -2.10456,0 z"
         style="color:#000000;font-style:normal;font-variant:normal;font-weight:normal;font-stretch:normal;font-size:21.04557419px;line-height:125%;font-family:Stark;-inkscape-font-specification:Stark;text-align:end;letter-spacing:0px;word-spacing:0px;writing-mode:lr-tb;text-anchor:end;clip-rule:nonzero;visibility:visible;isolation:auto;mix-blend-mode:normal;color-interpolation:sRGB;color-interpolation-filters:linearRGB;solid-color:#000000;solid-opacity:1;fill:#969696;fill-opacity:1;fill-rule:nonzero;stroke:none;stroke-width:1px;stroke-linecap:butt;stroke-linejoin:miter;stroke-miterlimit:4;stroke-dasharray:none;stroke-dashoffset:0;stroke-opacity:1;color-rendering:auto;image-rendering:auto;shape-rendering:auto;text-rendering:auto"
         id="path7684-0-9-0"
         inkscape:connector-curvature="0" />
      <path
         d="m 860.35242,97.23799 1.80992,4.20912 2.29397,0 -6.83981,-15.78419 -2.29397,0 -6.83981,15.78419 2.29396,0 1.83097,-4.20912 7.74477,0 z m -6.81877,-2.10456 2.94638,-6.81876 2.94638,6.81876 -5.89276,0 z"
         style="color:#000000;font-style:normal;font-variant:normal;font-weight:normal;font-stretch:normal;font-size:21.04557419px;line-height:125%;font-family:Stark;-inkscape-font-specification:Stark;text-align:end;letter-spacing:0px;word-spacing:0px;writing-mode:lr-tb;text-anchor:end;clip-rule:nonzero;visibility:visible;isolation:auto;mix-blend-mode:normal;color-interpolation:sRGB;color-interpolation-filters:linearRGB;solid-color:#000000;solid-opacity:1;fill:#969696;fill-opacity:1;fill-rule:nonzero;stroke:none;stroke-width:1px;stroke-linecap:butt;stroke-linejoin:miter;stroke-miterlimit:4;stroke-dasharray:none;stroke-dashoffset:0;stroke-opacity:1;color-rendering:auto;image-rendering:auto;shape-rendering:auto;text-rendering:auto"
         id="path7686-2-1-9"
         inkscape:connector-curvature="0" />
      <path
         d="m 877.21322,98.79536 -5.70335,-13.13244 -2.29397,0 3.43043,7.91314 -2.27292,5.2193 -5.70335,-13.13244 -2.29397,0 6.83981,15.78419 2.29397,0 2.27292,-5.24035 2.27292,5.24035 2.29397,0 6.83981,-15.78419 -2.29397,0 -5.6823,13.13244 z"
         style="color:#000000;font-style:normal;font-variant:normal;font-weight:normal;font-stretch:normal;font-size:21.04557419px;line-height:125%;font-family:Stark;-inkscape-font-specification:Stark;text-align:end;letter-spacing:0px;word-spacing:0px;writing-mode:lr-tb;text-anchor:end;clip-rule:nonzero;visibility:visible;isolation:auto;mix-blend-mode:normal;color-interpolation:sRGB;color-interpolation-filters:linearRGB;solid-color:#000000;solid-opacity:1;fill:#969696;fill-opacity:1;fill-rule:nonzero;stroke:none;stroke-width:1px;stroke-linecap:butt;stroke-linejoin:miter;stroke-miterlimit:4;stroke-dasharray:none;stroke-dashoffset:0;stroke-opacity:1;color-rendering:auto;image-rendering:auto;shape-rendering:auto;text-rendering:auto"
         id="path7688-3-9-1"
         inkscape:connector-curvature="0" />
      <path
         d="m 887.07998,85.66292 0,15.78419 2.10455,0 0,-15.78419 -2.10455,0 z"
         style="color:#000000;font-style:normal;font-variant:normal;font-weight:normal;font-stretch:normal;font-size:21.04557419px;line-height:125%;font-family:Stark;-inkscape-font-specification:Stark;text-align:end;letter-spacing:0px;word-spacing:0px;writing-mode:lr-tb;text-anchor:end;clip-rule:nonzero;visibility:visible;isolation:auto;mix-blend-mode:normal;color-interpolation:sRGB;color-interpolation-filters:linearRGB;solid-color:#000000;solid-opacity:1;fill:#969696;fill-opacity:1;fill-rule:nonzero;stroke:none;stroke-width:1px;stroke-linecap:butt;stroke-linejoin:miter;stroke-miterlimit:4;stroke-dasharray:none;stroke-dashoffset:0;stroke-opacity:1;color-rendering:auto;image-rendering:auto;shape-rendering:auto;text-rendering:auto"
         id="path7690-6-6-9"
         inkscape:connector-curvature="0" />
      <path
         d="m 902.64219,101.44711 -6.52412,-8.20778 6.01903,-7.57641 -2.69383,0 -6.27158,7.89209 0,-7.89209 -2.10456,0 0,15.78419 2.10456,0 0,-4.48271 1.59946,-2.02038 5.15616,6.50309 2.71488,0 z"
         style="color:#000000;font-style:normal;font-variant:normal;font-weight:normal;font-stretch:normal;font-size:21.04557419px;line-height:125%;font-family:Stark;-inkscape-font-specification:Stark;text-align:end;letter-spacing:0px;word-spacing:0px;writing-mode:lr-tb;text-anchor:end;clip-rule:nonzero;visibility:visible;isolation:auto;mix-blend-mode:normal;color-interpolation:sRGB;color-interpolation-filters:linearRGB;solid-color:#000000;solid-opacity:1;fill:#969696;fill-opacity:1;fill-rule:nonzero;stroke:none;stroke-width:1px;stroke-linecap:butt;stroke-linejoin:miter;stroke-miterlimit:4;stroke-dasharray:none;stroke-dashoffset:0;stroke-opacity:1;color-rendering:auto;image-rendering:auto;shape-rendering:auto;text-rendering:auto"
         id="path7692-8-9-6"
         inkscape:connector-curvature="0" />
      <path
         d="m 904.50834,85.66292 0,15.78419 2.10455,0 0,-15.78419 -2.10455,0 z"
         style="color:#000000;font-style:normal;font-variant:normal;font-weight:normal;font-stretch:normal;font-size:21.04557419px;line-height:125%;font-family:Stark;-inkscape-font-specification:Stark;text-align:end;letter-spacing:0px;word-spacing:0px;writing-mode:lr-tb;text-anchor:end;clip-rule:nonzero;visibility:visible;isolation:auto;mix-blend-mode:normal;color-interpolation:sRGB;color-interpolation-filters:linearRGB;solid-color:#000000;solid-opacity:1;fill:#969696;fill-opacity:1;fill-rule:nonzero;stroke:none;stroke-width:1px;stroke-linecap:butt;stroke-linejoin:miter;stroke-miterlimit:4;stroke-dasharray:none;stroke-dashoffset:0;stroke-opacity:1;color-rendering:auto;image-rendering:auto;shape-rendering:auto;text-rendering:auto"
         id="path7694-9-3-2"
         inkscape:connector-curvature="0" />
      <path
         d="m 797.63628,111.9699 0,2.10456 4.73525,0 0,13.67962 2.10456,0 0,-13.67962 4.73526,0 0,-2.10456 -11.57507,0 z"
         style="color:#000000;font-style:normal;font-variant:normal;font-weight:normal;font-stretch:normal;font-size:21.04557419px;line-height:125%;font-family:Stark;-inkscape-font-specification:Stark;text-align:end;letter-spacing:0px;word-spacing:0px;writing-mode:lr-tb;text-anchor:end;clip-rule:nonzero;visibility:visible;isolation:auto;mix-blend-mode:normal;color-interpolation:sRGB;color-interpolation-filters:linearRGB;solid-color:#000000;solid-opacity:1;fill:#969696;fill-opacity:1;fill-rule:nonzero;stroke:none;stroke-width:1px;stroke-linecap:butt;stroke-linejoin:miter;stroke-miterlimit:4;stroke-dasharray:none;stroke-dashoffset:0;stroke-opacity:1;color-rendering:auto;image-rendering:auto;shape-rendering:auto;text-rendering:auto"
         id="path7696-2-3-5"
         inkscape:connector-curvature="0" />
      <path
         d="m 812.32379,114.28491 c -1.53633,1.53633 -2.31501,3.40939 -2.31501,5.57708 0,2.1677 0.77868,4.04075 2.31501,5.57708 1.53633,1.53633 3.40938,2.31501 5.57708,2.31501 2.16769,0 4.04075,-0.77868 5.57707,-2.31501 1.53633,-1.53633 2.31502,-3.40938 2.31502,-5.57708 0,-2.16769 -0.77869,-4.04075 -2.31502,-5.57708 -1.53632,-1.53632 -3.40938,-2.31501 -5.57707,-2.31501 -2.1677,0 -4.04075,0.77869 -5.57708,2.31501 z m 1.49424,9.65992 c -1.13647,-1.11541 -1.7047,-2.48338 -1.7047,-4.08284 0,-1.59946 0.56823,-2.96742 1.7047,-4.10389 1.11541,-1.11541 2.48337,-1.68364 4.08284,-1.68364 1.59946,0 2.96742,0.56823 4.10388,1.68364 1.11542,1.13647 1.68365,2.50443 1.68365,4.10389 0,1.59946 -0.56823,2.96743 -1.68365,4.08284 -1.13646,1.13646 -2.50442,1.70469 -4.10388,1.70469 -1.59947,0 -2.96743,-0.56823 -4.08284,-1.70469 z"
         style="color:#000000;font-style:normal;font-variant:normal;font-weight:normal;font-stretch:normal;font-size:21.04557419px;line-height:125%;font-family:Stark;-inkscape-font-specification:Stark;text-align:end;letter-spacing:0px;word-spacing:0px;writing-mode:lr-tb;text-anchor:end;clip-rule:nonzero;visibility:visible;isolation:auto;mix-blend-mode:normal;color-interpolation:sRGB;color-interpolation-filters:linearRGB;solid-color:#000000;solid-opacity:1;fill:#969696;fill-opacity:1;fill-rule:nonzero;stroke:none;stroke-width:1px;stroke-linecap:butt;stroke-linejoin:miter;stroke-miterlimit:4;stroke-dasharray:none;stroke-dashoffset:0;stroke-opacity:1;color-rendering:auto;image-rendering:auto;shape-rendering:auto;text-rendering:auto"
         id="path7698-8-8-4"
         inkscape:connector-curvature="0" />
      <path
         d="m 835.78138,120.91427 5.68231,0 c -0.2315,1.1996 -0.75764,2.20979 -1.59946,3.03056 -1.11542,1.13646 -2.48338,1.70469 -4.08285,1.70469 -1.59946,0 -2.96742,-0.56823 -4.08284,-1.70469 -1.13646,-1.11541 -1.70469,-2.48338 -1.70469,-4.08284 0,-1.59946 0.56823,-2.96742 1.70469,-4.08284 1.11542,-1.13646 2.48338,-1.70469 4.08284,-1.70469 1.59947,0 2.96743,0.56823 4.08285,1.70469 l 1.49423,-1.49424 c -1.53633,-1.53632 -3.38834,-2.31501 -5.57708,-2.31501 -2.16769,0 -4.04075,0.77869 -5.57707,2.31501 -1.53633,1.53633 -2.31502,3.38834 -2.31502,5.57708 0,2.1677 0.77869,4.04075 2.31502,5.57708 1.53632,1.53633 3.40938,2.31501 5.57707,2.31501 2.18874,0 4.04075,-0.77868 5.57708,-2.31501 1.53633,-1.53633 2.31501,-3.74611 2.31501,-6.62936 l -7.89209,0 0,2.10456 z"
         style="color:#000000;font-style:normal;font-variant:normal;font-weight:normal;font-stretch:normal;font-size:21.04557419px;line-height:125%;font-family:Stark;-inkscape-font-specification:Stark;text-align:end;letter-spacing:0px;word-spacing:0px;writing-mode:lr-tb;text-anchor:end;clip-rule:nonzero;visibility:visible;isolation:auto;mix-blend-mode:normal;color-interpolation:sRGB;color-interpolation-filters:linearRGB;solid-color:#000000;solid-opacity:1;fill:#969696;fill-opacity:1;fill-rule:nonzero;stroke:none;stroke-width:1px;stroke-linecap:butt;stroke-linejoin:miter;stroke-miterlimit:4;stroke-dasharray:none;stroke-dashoffset:0;stroke-opacity:1;color-rendering:auto;image-rendering:auto;shape-rendering:auto;text-rendering:auto"
         id="path7700-67-0-4"
         inkscape:connector-curvature="0" />
      <path
         d="m 845.81092,111.9699 0,15.78418 8.94437,0 0,-2.10456 -6.83982,0 0,-4.73525 4.73526,0 0,-2.10456 -4.73526,0 0,-4.73525 6.83982,0 0,-2.10456 -8.94437,0 z"
         style="color:#000000;font-style:normal;font-variant:normal;font-weight:normal;font-stretch:normal;font-size:21.04557419px;line-height:125%;font-family:Stark;-inkscape-font-specification:Stark;text-align:end;letter-spacing:0px;word-spacing:0px;writing-mode:lr-tb;text-anchor:end;clip-rule:nonzero;visibility:visible;isolation:auto;mix-blend-mode:normal;color-interpolation:sRGB;color-interpolation-filters:linearRGB;solid-color:#000000;solid-opacity:1;fill:#969696;fill-opacity:1;fill-rule:nonzero;stroke:none;stroke-width:1px;stroke-linecap:butt;stroke-linejoin:miter;stroke-miterlimit:4;stroke-dasharray:none;stroke-dashoffset:0;stroke-opacity:1;color-rendering:auto;image-rendering:auto;shape-rendering:auto;text-rendering:auto"
         id="path7702-3-5-9"
         inkscape:connector-curvature="0" />
      <path
         d="m 856.86806,111.9699 0,2.10456 4.73526,0 0,13.67962 2.10455,0 0,-13.67962 4.73526,0 0,-2.10456 -11.57507,0 z"
         style="color:#000000;font-style:normal;font-variant:normal;font-weight:normal;font-stretch:normal;font-size:21.04557419px;line-height:125%;font-family:Stark;-inkscape-font-specification:Stark;text-align:end;letter-spacing:0px;word-spacing:0px;writing-mode:lr-tb;text-anchor:end;clip-rule:nonzero;visibility:visible;isolation:auto;mix-blend-mode:normal;color-interpolation:sRGB;color-interpolation-filters:linearRGB;solid-color:#000000;solid-opacity:1;fill:#969696;fill-opacity:1;fill-rule:nonzero;stroke:none;stroke-width:1px;stroke-linecap:butt;stroke-linejoin:miter;stroke-miterlimit:4;stroke-dasharray:none;stroke-dashoffset:0;stroke-opacity:1;color-rendering:auto;image-rendering:auto;shape-rendering:auto;text-rendering:auto"
         id="path7704-5-6-9"
         inkscape:connector-curvature="0" />
      <path
         d="m 870.5559,111.9699 0,15.78418 2.10456,0 0,-6.83981 6.83981,0 0,6.83981 2.10456,0 0,-15.78418 -2.10456,0 0,6.83981 -6.83981,0 0,-6.83981 -2.10456,0 z"
         style="color:#000000;font-style:normal;font-variant:normal;font-weight:normal;font-stretch:normal;font-size:21.04557419px;line-height:125%;font-family:Stark;-inkscape-font-specification:Stark;text-align:end;letter-spacing:0px;word-spacing:0px;writing-mode:lr-tb;text-anchor:end;clip-rule:nonzero;visibility:visible;isolation:auto;mix-blend-mode:normal;color-interpolation:sRGB;color-interpolation-filters:linearRGB;solid-color:#000000;solid-opacity:1;fill:#969696;fill-opacity:1;fill-rule:nonzero;stroke:none;stroke-width:1px;stroke-linecap:butt;stroke-linejoin:miter;stroke-miterlimit:4;stroke-dasharray:none;stroke-dashoffset:0;stroke-opacity:1;color-rendering:auto;image-rendering:auto;shape-rendering:auto;text-rendering:auto"
         id="path7706-3-6-3"
         inkscape:connector-curvature="0" />
      <path
         d="m 883.70939,111.9699 0,15.78418 8.94437,0 0,-2.10456 -6.83981,0 0,-4.73525 4.73525,0 0,-2.10456 -4.73525,0 0,-4.73525 6.83981,0 0,-2.10456 -8.94437,0 z"
         style="color:#000000;font-style:normal;font-variant:normal;font-weight:normal;font-stretch:normal;font-size:21.04557419px;line-height:125%;font-family:Stark;-inkscape-font-specification:Stark;text-align:end;letter-spacing:0px;word-spacing:0px;writing-mode:lr-tb;text-anchor:end;clip-rule:nonzero;visibility:visible;isolation:auto;mix-blend-mode:normal;color-interpolation:sRGB;color-interpolation-filters:linearRGB;solid-color:#000000;solid-opacity:1;fill:#969696;fill-opacity:1;fill-rule:nonzero;stroke:none;stroke-width:1px;stroke-linecap:butt;stroke-linejoin:miter;stroke-miterlimit:4;stroke-dasharray:none;stroke-dashoffset:0;stroke-opacity:1;color-rendering:auto;image-rendering:auto;shape-rendering:auto;text-rendering:auto"
         id="path7708-59-4-6"
         inkscape:connector-curvature="0" />
      <path
         d="m 899.88061,123.01883 3.74611,4.73525 2.71488,0 -3.89343,-4.90362 c 1.1996,-0.31568 2.18874,-0.94705 2.96743,-1.93619 0.79973,-1.01019 1.1996,-2.14665 1.1996,-3.43043 0,-1.53633 -0.54719,-2.82011 -1.62051,-3.89343 -1.07333,-1.07332 -2.37815,-1.62051 -3.91448,-1.62051 l -6.31367,0 0,15.78418 2.10455,0 0,-4.73525 3.00952,0 z m 3.61984,-7.95523 c 0.67346,0.67346 1.01019,1.47319 1.01019,2.42024 0,0.94705 -0.33673,1.74678 -1.01019,2.42024 -0.65241,0.67346 -1.47319,1.01019 -2.42024,1.01019 l -4.20912,0 0,-6.83981 4.20912,0 c 0.94705,0 1.76783,0.33673 2.42024,0.98914 z"
         style="color:#000000;font-style:normal;font-variant:normal;font-weight:normal;font-stretch:normal;font-size:21.04557419px;line-height:125%;font-family:Stark;-inkscape-font-specification:Stark;text-align:end;letter-spacing:0px;word-spacing:0px;writing-mode:lr-tb;text-anchor:end;clip-rule:nonzero;visibility:visible;isolation:auto;mix-blend-mode:normal;color-interpolation:sRGB;color-interpolation-filters:linearRGB;solid-color:#000000;solid-opacity:1;fill:#969696;fill-opacity:1;fill-rule:nonzero;stroke:none;stroke-width:1px;stroke-linecap:butt;stroke-linejoin:miter;stroke-miterlimit:4;stroke-dasharray:none;stroke-dashoffset:0;stroke-opacity:1;color-rendering:auto;image-rendering:auto;shape-rendering:auto;text-rendering:auto"
         id="path7710-59-0-0"
         inkscape:connector-curvature="0" />
      <g
         id="flowRoot4325-7-0-4-8-3-1-2-1"
         style="color:#000000;font-style:normal;font-variant:normal;font-weight:normal;font-stretch:normal;font-size:24.10953903px;line-height:125%;font-family:'Gill Sans';-inkscape-font-specification:'Gill Sans, Normal';text-align:start;letter-spacing:33.08431625px;word-spacing:0px;writing-mode:lr-tb;text-anchor:start;clip-rule:nonzero;display:inline;overflow:visible;visibility:visible;opacity:1;isolation:auto;mix-blend-mode:normal;color-interpolation:sRGB;color-interpolation-filters:linearRGB;solid-color:#000000;solid-opacity:1;fill:#ffffff;fill-opacity:1;fill-rule:nonzero;stroke:none;stroke-width:1px;stroke-linecap:butt;stroke-linejoin:miter;stroke-miterlimit:4;stroke-dasharray:none;stroke-dashoffset:0;stroke-opacity:1;color-rendering:auto;image-rendering:auto;shape-rendering:auto;text-rendering:auto;enable-background:accumulate"
         transform="translate(613.2542,-317.39512)">
        <path
           inkscape:connector-curvature="0"
           id="path8269-0-1-5"
           style="font-style:normal;font-variant:normal;font-weight:normal;font-stretch:normal;font-size:54.24645996px;line-height:122.00000286%;font-family:Stark;-inkscape-font-specification:Stark;text-align:end;letter-spacing:0px;text-anchor:end;fill:#323232;fill-opacity:1"
           d="m 200.03413,149.68749 0,5.42465 12.20545,0 0,35.2602 5.42465,0 0,-35.2602 12.20545,0 0,-5.42465 -29.83555,0 z" />
        <path
           inkscape:connector-curvature="0"
           id="path8271-8-0-9"
           style="font-style:normal;font-variant:normal;font-weight:normal;font-stretch:normal;font-size:54.24645996px;line-height:122.00000286%;font-family:Stark;-inkscape-font-specification:Stark;text-align:end;letter-spacing:0px;text-anchor:end;fill:#323232;fill-opacity:1"
           d="m 235.31551,149.68749 0,40.68485 5.42465,0 0,-17.6301 17.6301,0 0,17.6301 5.42465,0 0,-40.68485 -5.42465,0 0,17.6301 -17.6301,0 0,-17.6301 -5.42465,0 z" />
        <path
           inkscape:connector-curvature="0"
           id="path8273-1-5-9"
           style="font-style:normal;font-variant:normal;font-weight:normal;font-stretch:normal;font-size:54.24645996px;line-height:122.00000286%;font-family:Stark;-inkscape-font-specification:Stark;text-align:end;letter-spacing:0px;text-anchor:end;fill:#323232;fill-opacity:1"
           d="m 269.21955,149.68749 0,40.68485 23.05475,0 0,-5.42465 -17.6301,0 0,-12.20545 12.20545,0 0,-5.42465 -12.20545,0 0,-12.20545 17.6301,0 0,-5.42465 -23.05475,0 z" />
        <path
           inkscape:connector-curvature="0"
           id="path8275-2-1-1"
           style="font-style:normal;font-variant:normal;font-weight:normal;font-stretch:normal;font-size:54.24645996px;line-height:122.00000286%;font-family:Stark;-inkscape-font-specification:Stark;text-align:end;letter-spacing:0px;text-anchor:end;fill:#323232;fill-opacity:1"
           d="m 3.0641556e-4,215.86817 0,5.42465 12.20545358444,0 0,35.2602 5.424646,0 0,-35.2602 12.205453,0 0,-5.42465 -29.83555258444,0 z" />
        <path
           inkscape:connector-curvature="0"
           id="path8277-98-1-4"
           style="font-style:normal;font-variant:normal;font-weight:normal;font-stretch:normal;font-size:54.24645996px;line-height:122.00000286%;font-family:Stark;-inkscape-font-specification:Stark;text-align:end;letter-spacing:0px;text-anchor:end;fill:#323232;fill-opacity:1"
           d="m 35.281694,215.86817 0,40.68485 23.054745,0 0,-5.42465 -17.630099,0 0,-12.20545 12.205453,0 0,-5.42465 -12.205453,0 0,-12.20545 17.630099,0 0,-5.42465 -23.054745,0 z" />
        <path
           inkscape:connector-curvature="0"
           id="path8279-8-0-9"
           style="font-style:normal;font-variant:normal;font-weight:normal;font-stretch:normal;font-size:54.24645996px;line-height:122.00000286%;font-family:Stark;-inkscape-font-specification:Stark;text-align:end;letter-spacing:0px;text-anchor:end;fill:#323232;fill-opacity:1"
           d="m 69.20692,236.2106 c 0,-4.12273 1.464654,-7.64875 4.393963,-10.52382 2.875062,-2.92931 6.401082,-4.39396 10.523813,-4.39396 4.122731,0 7.648751,1.46465 10.523813,4.39396 l 3.851499,-3.8515 c -3.959992,-3.95999 -8.73368,-5.96711 -14.375312,-5.96711 -5.587385,0 -10.41532,2.00712 -14.375312,5.96711 -3.959991,3.96 -5.96711,8.73368 -5.96711,14.37532 0,5.58738 2.007119,10.41532 5.96711,14.37531 3.959992,3.95999 8.787927,5.96711 14.375312,5.96711 5.641632,0 10.41532,-2.00712 14.375312,-5.96711 l -3.851499,-3.8515 c -2.875062,2.92931 -6.401082,4.39396 -10.523813,4.39396 -4.122731,0 -7.648751,-1.46465 -10.523813,-4.39396 -2.929309,-2.87506 -4.393963,-6.40108 -4.393963,-10.52381 z" />
        <path
           inkscape:connector-curvature="0"
           id="path8281-6-8-1"
           style="font-style:normal;font-variant:normal;font-weight:normal;font-stretch:normal;font-size:54.24645996px;line-height:122.00000286%;font-family:Stark;-inkscape-font-specification:Stark;text-align:end;letter-spacing:0px;text-anchor:end;fill:#323232;fill-opacity:1"
           d="m 103.93737,215.86817 0,40.68485 5.42465,0 0,-17.6301 17.6301,0 0,17.6301 5.42464,0 0,-40.68485 -5.42464,0 0,17.6301 -17.6301,0 0,-17.6301 -5.42465,0 z" />
        <path
           inkscape:connector-curvature="0"
           id="path8283-8-5-0"
           style="font-style:normal;font-variant:normal;font-weight:normal;font-stretch:normal;font-size:54.24645996px;line-height:122.00000286%;font-family:Stark;-inkscape-font-specification:Stark;text-align:end;letter-spacing:0px;text-anchor:end;fill:#323232;fill-opacity:1"
           d="m 137.8414,215.86817 0,40.68485 5.42465,0 0,-30.7035 20.12543,30.7035 5.42465,0 0,-40.68485 -5.42465,0 0,30.75775 -20.12543,-30.75775 -5.42465,0 z" />
        <path
           inkscape:connector-curvature="0"
           id="path8285-2-0-7"
           style="font-style:normal;font-variant:normal;font-weight:normal;font-stretch:normal;font-size:54.24645996px;line-height:122.00000286%;font-family:Stark;-inkscape-font-specification:Stark;text-align:end;letter-spacing:0px;text-anchor:end;fill:#323232;fill-opacity:1"
           d="m 173.7585,215.86817 0,40.68485 5.42465,0 0,-40.68485 -5.42465,0 z" />
        <path
           inkscape:connector-curvature="0"
           id="path8287-0-6-5"
           style="font-style:normal;font-variant:normal;font-weight:normal;font-stretch:normal;font-size:54.24645996px;line-height:122.00000286%;font-family:Stark;-inkscape-font-specification:Stark;text-align:end;letter-spacing:0px;text-anchor:end;fill:#323232;fill-opacity:1"
           d="m 189.46031,236.2106 c 0,-4.12273 1.46465,-7.64875 4.39396,-10.52382 2.87506,-2.92931 6.40108,-4.39396 10.52381,-4.39396 4.12273,0 7.64875,1.46465 10.52382,4.39396 l 3.8515,-3.8515 c -3.96,-3.95999 -8.73368,-5.96711 -14.37532,-5.96711 -5.58738,0 -10.41532,2.00712 -14.37531,5.96711 -3.95999,3.96 -5.96711,8.73368 -5.96711,14.37532 0,5.58738 2.00712,10.41532 5.96711,14.37531 3.95999,3.95999 8.78793,5.96711 14.37531,5.96711 5.64164,0 10.41532,-2.00712 14.37532,-5.96711 l -3.8515,-3.8515 c -2.87507,2.92931 -6.40109,4.39396 -10.52382,4.39396 -4.12273,0 -7.64875,-1.46465 -10.52381,-4.39396 -2.92931,-2.87506 -4.39396,-6.40108 -4.39396,-10.52381 z" />
        <path
           inkscape:connector-curvature="0"
           id="path8289-2-4-8"
           style="font-style:normal;font-variant:normal;font-weight:normal;font-stretch:normal;font-size:54.24645996px;line-height:122.00000286%;font-family:Stark;-inkscape-font-specification:Stark;text-align:end;letter-spacing:0px;text-anchor:end;fill:#323232;fill-opacity:1"
           d="m 253.19651,245.70373 4.66519,10.84929 5.91287,0 -17.6301,-40.68485 -5.91287,0 -17.6301,40.68485 5.91287,0 4.71944,-10.84929 19.9627,0 z m -17.57586,-5.42465 7.59451,-17.57585 7.5945,17.57585 -15.18901,0 z" />
        <path
           inkscape:connector-curvature="0"
           id="path8291-4-6-7"
           style="font-style:normal;font-variant:normal;font-weight:normal;font-stretch:normal;font-size:54.24645996px;line-height:122.00000286%;font-family:Stark;-inkscape-font-specification:Stark;text-align:end;letter-spacing:0px;text-anchor:end;fill:#323232;fill-opacity:1"
           d="m 292.27429,251.12837 -17.6301,0 0,-35.2602 -5.42465,0 0,40.68485 23.05475,0 0,-5.42465 z" />
        <path
           inkscape:connector-curvature="0"
           id="path8293-9-2-0"
           style="font-style:normal;font-variant:normal;font-weight:normal;font-stretch:normal;font-size:54.24645996px;line-height:122.00000286%;font-family:Stark;-inkscape-font-specification:Stark;text-align:end;letter-spacing:0px;text-anchor:end;fill:#323232;fill-opacity:1"
           d="m 146.41913,315.89864 -14.70079,-33.84979 -5.91286,0 8.84217,20.39667 -5.85862,13.45312 -14.70079,-33.84979 -5.91286,0 17.6301,40.68485 5.91286,0 5.85862,-13.50737 5.85861,13.50737 5.91287,0 17.6301,-40.68485 -5.91287,0 -14.64654,33.84979 z" />
        <path
           inkscape:connector-curvature="0"
           id="path8295-8-5-4"
           style="font-style:normal;font-variant:normal;font-weight:normal;font-stretch:normal;font-size:54.24645996px;line-height:122.00000286%;font-family:Stark;-inkscape-font-specification:Stark;text-align:end;letter-spacing:0px;text-anchor:end;fill:#323232;fill-opacity:1"
           d="m 171.8514,282.04885 0,40.68485 5.42464,0 0,-40.68485 -5.42464,0 z" />
        <path
           inkscape:connector-curvature="0"
           id="path8297-1-8-8"
           style="font-style:normal;font-variant:normal;font-weight:normal;font-stretch:normal;font-size:54.24645996px;line-height:122.00000286%;font-family:Stark;-inkscape-font-specification:Stark;text-align:end;letter-spacing:0px;text-anchor:end;fill:#323232;fill-opacity:1"
           d="m 192.54388,323.16767 c 4.23123,-0.27123 7.32327,-2.22411 9.33039,-5.85862 1.5189,-2.87506 1.84438,-5.80437 0.92219,-8.78792 -0.92219,-3.03781 -2.76657,-5.31616 -5.64163,-6.78081 l -6.29259,-3.52602 c -1.46465,-0.75945 -2.44109,-1.95287 -2.92931,-3.58027 -0.48821,-1.57315 -0.37972,-3.14629 0.43397,-4.66519 1.41041,-1.89863 3.09205,-2.92931 5.04493,-2.98356 1.89862,-0.0542 3.63451,0.7052 5.20766,2.27835 l 4.44821,-3.20054 c -2.49534,-3.30903 -5.85862,-4.82793 -10.14409,-4.5567 -4.28547,0.32548 -7.43177,2.27835 -9.38464,5.91286 -1.5189,2.87506 -1.84438,5.80437 -0.92219,8.78793 0.92219,3.0378 2.76657,5.31615 5.64163,6.78081 l 6.29259,3.52602 c 1.46466,0.75945 2.44109,1.95287 2.92931,3.52602 0.48822,1.62739 0.37973,3.20054 -0.43397,4.71944 -1.41041,1.89862 -3.09205,2.92931 -5.04492,2.98355 -1.89863,0.0543 -3.63452,-0.7052 -5.20766,-2.27835 l -4.44821,3.20054 c 2.54958,3.30904 5.91286,4.82794 10.19833,4.50246 z" />
        <path
           inkscape:connector-curvature="0"
           id="path8299-5-6-0"
           style="font-style:normal;font-variant:normal;font-weight:normal;font-stretch:normal;font-size:54.24645996px;line-height:122.00000286%;font-family:Stark;-inkscape-font-specification:Stark;text-align:end;letter-spacing:0px;text-anchor:end;fill:#323232;fill-opacity:1"
           d="m 208.72204,282.04885 0,40.68485 5.42464,0 0,-17.6301 17.6301,0 0,17.6301 5.42465,0 0,-40.68485 -5.42465,0 0,17.6301 -17.6301,0 0,-17.6301 -5.42464,0 z" />
        <path
           inkscape:connector-curvature="0"
           id="path8301-64-2-4"
           style="font-style:normal;font-variant:normal;font-weight:normal;font-stretch:normal;font-size:54.24645996px;line-height:122.00000286%;font-family:Stark;-inkscape-font-specification:Stark;text-align:end;letter-spacing:0px;text-anchor:end;fill:#323232;fill-opacity:1"
           d="m 242.62607,282.04885 0,40.68485 23.05475,0 0,-5.42465 -17.6301,0 0,-12.20545 12.20545,0 0,-5.42465 -12.20545,0 0,-12.20545 17.6301,0 0,-5.42465 -23.05475,0 z" />
        <path
           inkscape:connector-curvature="0"
           id="path8303-68-8-2"
           style="font-style:normal;font-variant:normal;font-weight:normal;font-stretch:normal;font-size:54.24645996px;line-height:122.00000286%;font-family:Stark;-inkscape-font-specification:Stark;text-align:end;letter-spacing:0px;text-anchor:end;fill:#323232;fill-opacity:1"
           d="m 281.54197,323.16767 c 4.23123,-0.27123 7.32328,-2.22411 9.3304,-5.85862 1.5189,-2.87506 1.84438,-5.80437 0.92219,-8.78792 -0.92219,-3.03781 -2.76657,-5.31616 -5.64164,-6.78081 l -6.29259,-3.52602 c -1.46465,-0.75945 -2.44109,-1.95287 -2.9293,-3.58027 -0.48822,-1.57315 -0.37973,-3.14629 0.43397,-4.66519 1.41041,-1.89863 3.09205,-2.92931 5.04492,-2.98356 1.89862,-0.0542 3.63451,0.7052 5.20766,2.27835 l 4.44821,-3.20054 c -2.49534,-3.30903 -5.85862,-4.82793 -10.14409,-4.5567 -4.28547,0.32548 -7.43176,2.27835 -9.38464,5.91286 -1.5189,2.87506 -1.84438,5.80437 -0.92219,8.78793 0.92219,3.0378 2.76657,5.31615 5.64163,6.78081 l 6.29259,3.52602 c 1.46466,0.75945 2.44109,1.95287 2.92931,3.52602 0.48822,1.62739 0.37973,3.20054 -0.43397,4.71944 -1.41041,1.89862 -3.09205,2.92931 -5.04492,2.98355 -1.89863,0.0543 -3.63451,-0.7052 -5.20766,-2.27835 l -4.44821,3.20054 c 2.54958,3.30904 5.91286,4.82794 10.19833,4.50246 z" />
        <path
           inkscape:connector-curvature="0"
           id="path8305-6-4-9"
           style="font-style:normal;font-variant:normal;font-weight:normal;font-stretch:normal;font-size:54.24645996px;line-height:122.00000286%;font-family:Stark;-inkscape-font-specification:Stark;text-align:end;letter-spacing:0px;text-anchor:end;fill:#323232;fill-opacity:1"
           d="m 88.133004,372.53196 c 2.76657,-2.76657 4.176978,-6.12985 4.176978,-10.08984 0,-3.95999 -1.410408,-7.26903 -4.176978,-10.0356 -2.766569,-2.76656 -6.12985,-4.17697 -10.089841,-4.17697 l -16.273938,0 0,40.68484 5.424646,0 0,-12.20545 10.849292,0 c 3.959991,0 7.323272,-1.41041 10.089841,-4.17698 z m -3.851498,-16.32818 c 1.735886,1.73588 2.60383,3.79725 2.60383,6.23834 0,2.44109 -0.867944,4.50246 -2.60383,6.23834 -1.681641,1.73589 -3.797253,2.60383 -6.238343,2.60383 l -10.849292,0 0,-17.6301 10.849292,0 c 2.44109,0 4.556702,0.86795 6.238343,2.54959 z" />
        <path
           inkscape:connector-curvature="0"
           id="path8307-3-7-6"
           style="font-style:normal;font-variant:normal;font-weight:normal;font-stretch:normal;font-size:54.24645996px;line-height:122.00000286%;font-family:Stark;-inkscape-font-specification:Stark;text-align:end;letter-spacing:0px;text-anchor:end;fill:#323232;fill-opacity:1"
           d="m 110.86821,376.70894 9.65587,12.20545 6.99779,0 -10.0356,-12.63942 c 3.09205,-0.8137 5.64164,-2.44109 7.64875,-4.99068 2.06137,-2.60383 3.09205,-5.53314 3.09205,-8.84217 0,-3.95999 -1.4104,-7.26903 -4.17697,-10.0356 -2.76657,-2.76656 -6.12985,-4.17697 -10.08985,-4.17697 l -16.273934,0 0,40.68484 5.424644,0 0,-12.20545 7.75725,0 z m 9.33039,-20.50516 c 1.73588,1.73588 2.60383,3.79725 2.60383,6.23834 0,2.44109 -0.86795,4.50246 -2.60383,6.23834 -1.68164,1.73589 -3.79726,2.60383 -6.23835,2.60383 l -10.84929,0 0,-17.6301 10.84929,0 c 2.44109,0 4.55671,0.86795 6.23835,2.54959 z" />
        <path
           inkscape:connector-curvature="0"
           id="path8309-5-2-1"
           style="font-style:normal;font-variant:normal;font-weight:normal;font-stretch:normal;font-size:54.24645996px;line-height:122.00000286%;font-family:Stark;-inkscape-font-specification:Stark;text-align:end;letter-spacing:0px;text-anchor:end;fill:#323232;fill-opacity:1"
           d="m 139.57052,354.19666 c -3.95999,3.95999 -5.96711,8.78792 -5.96711,14.37531 0,5.58739 2.00712,10.41532 5.96711,14.37531 3.95999,3.95999 8.78792,5.96711 14.37531,5.96711 5.58739,0 10.41532,-2.00712 14.37531,-5.96711 3.95999,-3.95999 5.96711,-8.78792 5.96711,-14.37531 0,-5.58739 -2.00712,-10.41532 -5.96711,-14.37531 -3.95999,-3.95999 -8.78792,-5.96711 -14.37531,-5.96711 -5.58739,0 -10.41532,2.00712 -14.37531,5.96711 z m 3.8515,24.89912 c -2.92931,-2.87506 -4.39397,-6.40108 -4.39397,-10.52381 0,-4.12273 1.46466,-7.64875 4.39397,-10.57806 2.87506,-2.87506 6.40108,-4.33972 10.52381,-4.33972 4.12273,0 7.64875,1.46466 10.57806,4.33972 2.87506,2.92931 4.33972,6.45533 4.33972,10.57806 0,4.12273 -1.46466,7.64875 -4.33972,10.52381 -2.92931,2.92931 -6.45533,4.39397 -10.57806,4.39397 -4.12273,0 -7.64875,-1.46466 -10.52381,-4.39397 z" />
        <path
           inkscape:connector-curvature="0"
           id="path8311-7-4-0"
           style="font-style:normal;font-variant:normal;font-weight:normal;font-stretch:normal;font-size:54.24645996px;line-height:122.00000286%;font-family:Stark;-inkscape-font-specification:Stark;text-align:end;letter-spacing:0px;text-anchor:end;fill:#323232;fill-opacity:1"
           d="m 182.90666,348.22955 0,29.13035 c 0,1.68164 -0.59671,3.14629 -1.79014,4.33971 -1.19342,1.19343 -2.60383,1.79014 -4.28547,1.79014 l 0,5.42464 c 3.20054,0 5.91287,-1.13917 8.13697,-3.36328 2.22411,-2.2241 3.36328,-4.99067 3.36328,-8.19121 l 0,-29.13035 -5.42464,0 z" />
        <path
           inkscape:connector-curvature="0"
           id="path8313-4-0-4"
           style="font-style:normal;font-variant:normal;font-weight:normal;font-stretch:normal;font-size:54.24645996px;line-height:122.00000286%;font-family:Stark;-inkscape-font-specification:Stark;text-align:end;letter-spacing:0px;text-anchor:end;fill:#323232;fill-opacity:1"
           d="m 193.78308,348.22955 0,40.68484 23.05475,0 0,-5.42464 -17.6301,0 0,-12.20546 12.20545,0 0,-5.42464 -12.20545,0 0,-12.20546 17.6301,0 0,-5.42464 -23.05475,0 z" />
        <path
           inkscape:connector-curvature="0"
           id="path8315-2-6-2"
           style="font-style:normal;font-variant:normal;font-weight:normal;font-stretch:normal;font-size:54.24645996px;line-height:122.00000286%;font-family:Stark;-inkscape-font-specification:Stark;text-align:end;letter-spacing:0px;text-anchor:end;fill:#323232;fill-opacity:1"
           d="m 227.70831,368.57197 c 0,-4.12273 1.46465,-7.64875 4.39396,-10.52381 2.87506,-2.92931 6.40108,-4.39397 10.52381,-4.39397 4.12273,0 7.64875,1.46466 10.52382,4.39397 l 3.85149,-3.8515 c -3.95999,-3.95999 -8.73368,-5.96711 -14.37531,-5.96711 -5.58738,0 -10.41532,2.00712 -14.37531,5.96711 -3.95999,3.95999 -5.96711,8.73368 -5.96711,14.37531 0,5.58739 2.00712,10.41532 5.96711,14.37531 3.95999,3.95999 8.78793,5.96711 14.37531,5.96711 5.64163,0 10.41532,-2.00712 14.37531,-5.96711 l -3.85149,-3.8515 c -2.87507,2.92931 -6.40109,4.39397 -10.52382,4.39397 -4.12273,0 -7.64875,-1.46466 -10.52381,-4.39397 -2.92931,-2.87506 -4.39396,-6.40108 -4.39396,-10.52381 z" />
        <path
           inkscape:connector-curvature="0"
           id="path8317-4-2-2"
           style="font-style:normal;font-variant:normal;font-weight:normal;font-stretch:normal;font-size:54.24645996px;line-height:122.00000286%;font-family:Stark;-inkscape-font-specification:Stark;text-align:end;letter-spacing:0px;text-anchor:end;fill:#323232;fill-opacity:1"
           d="m 262.43875,348.22955 0,5.42464 12.20545,0 0,35.2602 5.42465,0 0,-35.2602 12.20545,0 0,-5.42464 -29.83555,0 z" />
      </g>
      <g
         style="display:inline"
         id="g4445-0-5-0"
         transform="translate(738.44262,-316.15881)">
        <path
           inkscape:connector-curvature="0"
           style="fill:#323232;fill-opacity:1;fill-rule:evenodd;stroke:#ffffff;stroke-width:1px;stroke-linecap:butt;stroke-linejoin:miter;stroke-opacity:1"
           d="m 338.84772,210.39931 c 6.35484,-1.37731 8.47117,-2.993 26.10879,-20.22738 17.63761,-17.23437 26.22238,-50.48305 30.50027,-70.35326 4.2779,-19.870184 1.52031,-29.767763 0.68074,-45.267572 -0.83955,-15.499807 -5.88476,-47.499321 -5.88476,-47.499321 l -2.27554,-1.764298 c 0,0 -7.56413,12.397536 -14.02447,23.655117 -6.46033,11.257584 -18.46892,32.299363 -24.45229,44.04506 -5.98338,11.745694 -8.45737,15.580284 -12.1132,26.033834 -3.65581,10.45354 -7.59958,26.84257 -8.87222,36.67435 -1.27262,9.83179 -0.77299,14.68852 -0.43692,21.74618 0.3361,7.05764 1.46287,15.24971 2.37408,20.50637 0.91121,5.25667 0.52868,9.02329 2.56949,11.07281 2.04082,2.04951 -0.52882,2.75542 5.82602,1.37815 z"
           id="path4274-5-4-4" />
        <path
           inkscape:connector-curvature="0"
           style="fill:#323232;fill-opacity:1;fill-rule:evenodd;stroke:#ffffff;stroke-width:1px;stroke-linecap:butt;stroke-linejoin:miter;stroke-opacity:1"
           d="m 347.47873,96.793539 c 3.762,-4.257439 -4.42029,-15.812332 -8.18624,-24.817199 -3.76594,-9.004868 -8.71043,-17.35638 -14.34938,-27.296813 -5.63895,-9.940436 -19.65906,-32.206292 -19.65906,-32.206292 0,0 -0.16432,14.971756 -0.18181,23.085466 -0.0175,8.113713 0.69026,17.914317 0.0913,25.596045 -0.599,7.681728 -1.79478,10.215444 -3.27111,20.373143 -1.47633,10.1577 -4.92458,29.248751 -5.28693,40.609771 -0.36235,11.36103 0.21694,17.86828 1.78876,27.1896 1.57181,9.32133 5.19171,20.50803 7.81536,28.41394 2.62366,7.9059 4.55269,14.81286 7.46324,19.10402 2.91054,4.29114 5.37407,6.23271 7.7473,7.23542 2.37325,1.00272 2.64808,1.59451 4.85203,0.23431 2.20394,-1.36015 3.75202,-4.88871 4.323,-9.76759 0.57099,-4.87889 -2.97617,-11.97012 -3.43205,-18.47556 -0.45587,-6.50545 -0.50733,-10.79707 0.88931,-20.31733 1.39667,-9.52024 5.6455,-26.72612 9.16447,-36.25577 3.51895,-9.52966 6.46981,-18.44779 10.23183,-22.70521 z"
           id="path4276-2-0-6" />
        <path
           inkscape:connector-curvature="0"
           style="fill:#323232;fill-opacity:1;fill-rule:evenodd;stroke:#ffffff;stroke-width:1px;stroke-linecap:butt;stroke-linejoin:miter;stroke-opacity:1"
           d="m 303.19826,196.05034 c -2.61497,1.96419 -4.21605,2.14379 -9.15789,0.4809 -4.94183,-1.66292 -10.85584,-8.08525 -16.32147,-14.67262 -5.46563,-6.58737 -11.51011,-16.28345 -15.37762,-25.23782 -3.86752,-8.95435 -5.81491,-17.71553 -7.78421,-28.00432 -1.9693,-10.2888 -3.06581,-19.74854 -3.66989,-33.652326 -0.60408,-13.903788 0.17836,-36.277325 1.03025,-49.777037 0.85192,-13.499711 1.86504,-22.899831 3.27261,-31.092004 1.40756,-8.1921766 4.29277,-17.9836197 4.29277,-17.9836197 0,0 10.10039,15.3677707 13.56398,20.8760947 3.4636,5.508326 4.30034,5.888825 7.34764,12.079708 3.04729,6.190881 6.8379,16.446183 9.88289,25.526367 15.93384,26.517151 6.50626,43.952017 6.31799,68.289177 -1.22666,8.29668 1.18527,17.2251 1.41547,25.99014 0.2302,8.76503 6.68565,22.82574 7.79924,28.73173 1.84458,7.85814 4.50134,12.77876 -2.61176,18.44563 z"
           id="path4278-9-5-2" />
        <path
           inkscape:connector-curvature="0"
           style="fill:#323232;fill-opacity:1;fill-rule:evenodd;stroke:#ffffff;stroke-width:1px;stroke-linecap:butt;stroke-linejoin:miter;stroke-opacity:1"
           d="m 280.00721,185.56863 c 0.47251,3.01804 -1.59227,11.69934 -4.35,14.43499 -2.7579,2.73566 -0.88786,4.00222 -7.11869,2.11483 -6.23086,-1.8874 -12.86984,-17.19705 -18.16652,-25.43956 -5.29665,-8.24251 -10.44884,-15.13439 -13.73794,-23.86148 -3.2891,-8.72711 -3.84046,-16.6836 -5.75288,-27.97174 -1.91241,-11.28813 -4.11053,-20.50362 -5.33311,-39.832567 -1.22259,-19.328943 -1.18378,-62.539378 0.42198,-76.3475543 1.60571,-13.8081787 1.32541,-5.8497247 1.32541,-5.8497247 0,0 5.94047,6.5808151 8.85487,10.81667 2.91443,4.235853 3.69355,6.182387 6.56496,9.935895 7.62978,8.700376 9.53012,13.335732 8.41875,24.306171 -0.79624,10.088786 -1.66295,35.280639 -0.95507,48.867778 0.70786,13.587122 2.01691,22.604102 4.10309,32.654582 2.08617,10.05052 4.21664,18.66028 8.10072,27.56988 3.88405,8.90961 12.0821,20.82585 15.21935,25.45506 3.13727,4.6292 1.93261,0.12846 2.40508,3.14677 z"
           id="path4280-7-9-6" />
        <path
           inkscape:connector-curvature="0"
           style="fill:#323232;fill-opacity:1;fill-rule:evenodd;stroke:#ffffff;stroke-width:1px;stroke-linecap:butt;stroke-linejoin:miter;stroke-opacity:1"
           d="m 287.89668,395.86285 c 3.77816,1.86855 5.97213,7.35096 7.08625,13.30239 1.11412,5.95143 -1.07758,13.16737 -2.53097,21.10554 -1.45338,7.93817 -3.96906,16.73321 -6.53118,26.36714 -2.56213,9.63392 -5.87709,22.84111 -8.9301,31.40378 -3.05302,8.56267 -8.04242,19.0123 -8.68637,20.09845 -0.64395,1.08615 -12.37318,27.30737 -12.37318,27.30737 0,0 3.16421,-34.77614 2.86643,-47.91652 -0.29777,-13.14038 -4.58298,-19.98418 -3.2364,-30.69014 1.34656,-10.70597 8.07521,-21.87913 11.78669,-31.76531 3.71147,-9.88614 5.34384,-23.37004 10.46619,-27.5572 5.1223,-4.18715 6.30449,-3.52405 10.08264,-1.6555 z"
           id="path4302-7-4-7" />
        <path
           inkscape:connector-curvature="0"
           style="fill:#323232;fill-opacity:1;fill-rule:evenodd;stroke:#ffffff;stroke-width:1px;stroke-linecap:butt;stroke-linejoin:miter;stroke-opacity:1"
           d="m 224.11731,563.85326 c 0,0 -4.39182,-12.03324 -3.79354,-21.33215 0.59823,-9.2989 6.65984,-21.54467 10.26608,-32.6668 3.60624,-11.12215 10.92558,-24.99029 11.38483,-34.05863 0.45925,-9.06834 -3.59432,-9.58568 -4.25286,-18.08143 -0.65858,-8.49577 5.53709,-20.19841 9.10696,-30.71176 3.56988,-10.51334 7.41134,-27.6025 12.3903,-32.28817 4.97896,-4.68566 2.89739,-2.78364 6.13991,-1.93795 3.24251,0.84565 10.43791,0.44358 4.50235,23.058 -5.93558,22.61443 -12.20746,25.79458 -14.60749,41.70504 -2.40003,15.91047 4.78937,18.63761 1.28907,37.75603 -3.50027,19.11844 -32.58701,70.81082 -32.58701,70.81082 z"
           id="path4304-68-6-5" />
        <path
           inkscape:connector-curvature="0"
           style="fill:#323232;fill-opacity:1;fill-rule:evenodd;stroke:#ffffff;stroke-width:1px;stroke-linecap:butt;stroke-linejoin:miter;stroke-opacity:1"
           d="m 249.93421,396.54923 c -0.94574,1.34759 -6.80045,12.27558 -11.6968,19.19438 -4.89634,6.91882 -11.13335,24.22582 -11.86574,24.96596 -0.7324,0.74012 -10.05661,31.32306 -11.08692,33.06092 -1.03031,1.73782 -4.82202,21.83394 -6.90206,29.96387 -2.08005,8.12992 -5.01398,11.19568 -5.31461,18.86802 -0.30061,7.67234 3.06084,20.89275 5.1605,25.95917 2.09966,5.06645 3.5796,5.3517 3.5796,5.3517 12.41655,-6.65419 6.69391,-1.7941 7.82356,-11.21526 1.5656,-13.61889 20.4293,-55.75608 22.50154,-64.45351 2.07221,-8.69743 -3.74824,-12.47865 -4.71712,-21.00504 -0.9689,-8.5264 17.11809,-49.88317 18.18439,-57.88237 1.0663,-7.99921 -4.72056,-4.15544 -5.66632,-2.80784 z"
           id="path4306-1-9-6" />
        <path
           inkscape:connector-curvature="0"
           style="fill:#323232;fill-opacity:1;fill-rule:evenodd;stroke:#ffffff;stroke-width:1px;stroke-linecap:butt;stroke-linejoin:miter;stroke-opacity:1"
           d="m 313.04889,401.96732 c 4.22855,4.44263 6.33435,16.21633 8.78984,24.2943 2.45549,8.07798 5.19458,14.64173 5.9736,24.09258 0.77903,9.45083 -0.70912,19.5204 -2.51713,31.97639 -1.80802,12.45601 -6.18979,31.59678 -9.04504,42.49189 -2.85525,10.8951 -3.52189,14.97076 -7.19836,23.03574 -3.67646,8.06497 -15.24526,24.72383 -15.24526,24.72383 0,0 -2.07506,-6.12266 -2.36303,-12.85079 -0.28795,-6.72814 2.40475,-17.40569 2.62881,-27.21285 0.22406,-9.80714 0.24681,-21.11288 -1.59477,-31.47835 -1.84157,-10.36548 -8.97344,-20.52653 -9.38404,-30.22474 -0.41061,-9.6982 3.96971,-18.4374 5.71036,-25.97303 1.7409,-7.53556 3.68236,-13.2269 4.66292,-19.25438 0.98055,-6.02749 1.65903,-13.1671 1.4277,-16.76869 -0.23132,-3.60159 -1.78007,-3.99354 -0.81575,-6.46219 0.96432,-2.46866 5.2044,-4.22783 8.85653,-4.62426 3.65213,-0.39647 5.88507,-0.20807 10.11362,4.23455 z"
           id="path4310-20-2-9" />
        <path
           inkscape:connector-curvature="0"
           style="fill:#323232;fill-opacity:1;fill-rule:evenodd;stroke:#ffffff;stroke-width:1px;stroke-linecap:butt;stroke-linejoin:miter;stroke-opacity:1"
           d="m 333.86588,399.04269 c 8.05018,3.70352 11.51531,17.79548 16.09496,29.79966 4.57965,12.00417 7.95045,28.55332 10.00924,42.04519 2.05878,13.49186 3.45216,25.89789 2.67152,38.57564 -0.78067,12.67775 -3.66893,27.34527 -7.16903,36.85165 -3.5001,9.50639 -11.41416,20.24272 -11.41416,20.24272 0,0 -4.08981,-5.73691 -5.55791,-10.92834 -1.4681,-5.19144 0.81343,-11.18408 -1.62125,-20.04426 -2.43469,-8.86017 -17.89474,-18.3883 -15.41067,-31.44903 2.48407,-13.06076 3.21191,-15.26502 4.29368,-23.58352 1.08178,-8.31848 2.87558,-19.30703 2.51881,-28.488 -0.35676,-9.18096 -3.94529,-16.93573 -5.84718,-25.58627 -1.90185,-8.65052 -6.06419,-19.85608 -7.42993,-23.35169 -1.36574,-3.49564 10.81175,-7.78726 18.86192,-4.08375 z"
           id="path4312-3-2-8" />
        <path
           inkscape:connector-curvature="0"
           style="fill:#323232;fill-opacity:1;fill-rule:evenodd;stroke:#ffffff;stroke-width:1px;stroke-linecap:butt;stroke-linejoin:miter;stroke-opacity:1"
           d="m 379.21926,383.94873 c 3.54408,6.72343 14.14101,12.6483 19.71819,18.73639 5.57717,6.08811 8.53225,13.0067 11.96922,19.42682 3.43697,6.42011 4.28004,11.47495 7.31303,19.58738 3.033,8.11242 5.68269,20.1106 10.13787,29.21847 4.45519,9.10786 10.75086,17.49209 17.40773,24.11905 6.65685,6.62696 15.57798,11.58308 21.65001,15.47796 7.50783,6.14436 14.81091,3.4675 14.14316,12.78887 0,0 -21.21108,-2.51916 -31.47673,-6.33109 -10.26565,-3.81192 -19.84621,-9.04945 -29.27793,-16.47731 -9.43172,-7.42785 -19.62336,-16.37901 -25.02342,-24.13832 -5.40006,-7.7593 -7.13486,-10.57483 -10.35564,-19.04256 -3.22077,-8.46772 -4.1024,-23.83525 -8.30527,-36.15089 -4.20288,-12.31563 -16.47322,-30.85605 -19.78665,-31.00072 -3.31344,-0.14468 1.82296,-6.81723 5.63291,-8.51068 3.80997,-1.69344 12.70946,-4.4268 16.25352,2.29663 z"
           id="path4314-2-4-7" />
        <path
           inkscape:connector-curvature="0"
           style="fill:#323232;fill-opacity:1;fill-rule:evenodd;stroke:#ffffff;stroke-width:1px;stroke-linecap:butt;stroke-linejoin:miter;stroke-opacity:1"
           d="m 385.23886,457.97808 c 3.6965,10.05252 9.18908,14.83848 12.99791,25.61481 3.80882,10.77633 6.72177,23.9091 8.30401,38.97913 1.58226,15.07002 -0.0347,51.0633 -0.0347,51.0633 0,0 -9.32613,-18.68854 -14.66278,-29.24413 -5.33667,-10.55559 -12.00179,-25.12383 -17.37348,-34.08067 -5.37171,-8.95685 -8.50269,-9.4456 -10.82454,-16.91541 -2.32185,-7.46982 -2.88454,-16.61174 -4.19896,-26.75631 -1.31443,-10.14457 -6.11241,-23.20752 -9.26052,-36.19516 -1.41903,-12.84821 -15.86587,-35.43507 -8.41115,-41.15423 2.88108,-0.55066 6.89095,-3.17458 15.00144,1.3172 8.11052,4.49178 15.45141,21.40906 20.18198,32.8099 4.73057,11.40083 4.58429,24.50905 8.28078,34.56157 z"
           id="path4316-87-7-2" />
        <path
           inkscape:connector-curvature="0"
           style="fill:#323232;fill-opacity:1;fill-rule:evenodd;stroke:#ffffff;stroke-width:1px;stroke-linecap:butt;stroke-linejoin:miter;stroke-opacity:1"
           d="m 432.3484,472.1095 c 8.30526,9.80072 21.21186,13.3046 31.2485,20.58145 10.03662,7.27682 21.47562,21.26768 28.92252,23.01907 7.4469,1.75136 8.73892,-1.86499 8.73892,-1.86499 0,0 -4.85422,-18.9456 -9.02255,-27.36814 -4.16833,-8.42253 -11.36533,-13.98549 -15.58144,-22.74272 -4.2161,-8.75724 -7.90379,-28.75996 -8.98994,-29.4039 -1.08615,-0.64395 -14.59101,-26.41334 -29.50521,-38.40249 -14.91419,-11.98917 -23.01287,-18.13961 -31.33745,-25.85362 -8.32459,-7.71402 -18.86134,-9.89616 -24.77358,-8.22867 -5.91225,1.66747 -5.97304,4.28177 -6.92977,8.22211 -0.95673,3.94035 -0.52258,7.21494 3.01472,13.23717 3.53729,6.02224 15.74564,12.49897 21.06191,18.94591 5.31625,6.44692 8.44726,13.03786 11.2291,18.69441 2.78183,5.65654 2.2645,6.34824 5.8387,14.91144 3.57419,8.5632 7.78031,26.45223 16.08557,36.25297 z"
           id="path4318-4-7-8" />
        <path
           inkscape:connector-curvature="0"
           style="fill:#323232;fill-opacity:1;fill-rule:evenodd;stroke:#ffffff;stroke-width:1px;stroke-linecap:butt;stroke-linejoin:miter;stroke-opacity:1"
           d="m 395.42844,328.38271 c -1.15172,3.05126 -3.20585,1.10592 0.26368,8.96389 3.46951,7.85797 17.97664,20.14961 30.60289,29.59343 12.62626,9.44383 32.16503,19.33482 45.26449,25.66172 13.09948,6.32689 22.98499,10.93918 32.6823,13.21111 9.6973,2.27197 22.78754,1.17955 24.43694,1.8638 1.64939,0.68431 38.87193,4.2566 38.87193,4.2566 0,0 -10.83499,-17.87358 -11.57513,-18.60597 -0.74012,-0.73239 -20.58063,-12.18774 -29.98544,-19.24546 -9.40481,-7.05773 -16.18425,-15.46963 -26.32353,-22.94611 -10.13927,-7.47648 -23.9977,-16.51207 -34.58762,-21.3868 -10.58991,-4.87472 -17.39338,-7.23711 -27.89549,-8.90524 -10.50212,-1.66813 -27.61304,-3.1835 -34.51959,-0.20829 -6.90655,2.97523 -6.08372,4.69605 -7.23543,7.74732 z"
           id="path4320-6-5-2" />
        <path
           inkscape:connector-curvature="0"
           style="fill:#323232;fill-opacity:1;fill-rule:evenodd;stroke:#ffffff;stroke-width:1px;stroke-linecap:butt;stroke-linejoin:miter;stroke-opacity:1"
           d="m 419.23945,244.14846 c 8.42609,-4.05887 15.01958,-5.8919 25.6148,-12.99791 10.59523,-7.106 23.3205,-4.77991 34.88272,-4.86093 11.56222,-0.081 26.23381,3.16391 33.89113,4.23949 7.65731,1.07556 4.92877,1.17744 12.09356,1.88538 7.16477,0.70795 30.9306,1.30994 30.9306,1.30994 0,0 -8.5813,11.21301 -17.0218,16.33093 -8.4405,5.11794 -24.99879,7.14709 -33.76561,11.39497 -8.76679,4.24787 -12.95393,8.96138 -19.12113,12.44403 -6.16721,3.48266 -9.12536,10.43852 -17.7122,8.582 -8.58684,-1.85652 -21.92799,0.68484 -28.97554,-0.15083 -7.04755,-0.83567 -34.24466,3.96863 -32.11458,4.15341 2.1301,0.18476 -9.67915,-3.97698 -11.11132,-4.53249 -13.18823,-20.31467 3.84412,-25.03916 22.40937,-37.79799 z"
           id="path4322-3-4-9" />
        <path
           inkscape:connector-curvature="0"
           style="fill:#323232;fill-opacity:1;fill-rule:evenodd;stroke:#ffffff;stroke-width:1px;stroke-linecap:butt;stroke-linejoin:miter;stroke-opacity:1"
           d="m 472.75704,282.63001 c 0.47868,0.43059 32.0789,4.12586 46.69993,10.36553 14.62103,6.2397 27.56642,17.16276 39.55131,26.38472 11.98489,9.22197 32.37335,28.588 32.37335,28.588 0,0 -4.88363,4.63527 -16.17446,4.5027 -11.29084,-0.13257 -37.97239,-8.80459 -48.75895,-14.81569 -10.78651,-6.0112 -8.87551,-8.8714 -17.36125,-15.28395 -8.48575,-6.41256 -22.76353,-16.62963 -34.20125,-22.0385 -11.43772,-5.40885 -21.3958,-10.03767 -33.53573,-10.78123 -12.13994,-0.74361 -30.31912,10.04932 -37.0799,7.08132 -6.76077,-2.96801 -3.9607,-3.31036 -3.45082,-5.56892 0.50988,-2.25856 -0.29715,-1.48868 6.17252,-3.9737 6.46967,-2.48501 22.78151,-4.79453 33.79658,-5.50489 11.01507,-0.71037 31.49,0.61402 31.96867,1.04461 z"
           id="path4324-8-8-9" />
        <path
           inkscape:connector-curvature="0"
           style="fill:#323232;fill-opacity:1;fill-rule:evenodd;stroke:#ffffff;stroke-width:1px;stroke-linecap:butt;stroke-linejoin:miter;stroke-opacity:1"
           d="m 404.92177,297.01928 c -8.13623,-1.5594 -6.09243,4.2514 -6.06083,8.73729 0.0316,4.48588 6.34195,13.99457 9.46803,13.24655 3.12605,-0.74802 17.12146,-1.9636 28.39906,1.7634 11.27758,3.72701 18.55106,4.39611 27.29716,8.42889 8.74608,4.03273 17.87365,10.78593 25.64108,14.54348 7.76741,3.75754 12.3155,-2.15248 21.09004,-0.41406 8.77455,1.73842 29.86605,13.00937 29.86605,13.00937 0,0 -12.68337,-15.04599 -13.76952,-15.68994 -1.08615,-0.64394 -11.14568,-12.44951 -19.95421,-19.09869 -8.80851,-6.64918 -21.19823,-15.88699 -32.50983,-20.86981 -11.3116,-4.98281 -21.6033,-11.63981 -33.25605,-11.25297 -11.65275,0.38684 -28.07474,9.15587 -36.21098,7.59649 z"
           id="path4326-0-1-6" />
        <path
           inkscape:connector-curvature="0"
           style="fill:#323232;fill-opacity:1;fill-rule:evenodd;stroke:#ffffff;stroke-width:1px;stroke-linecap:butt;stroke-linejoin:miter;stroke-opacity:1"
           d="m 494.04041,404.91292 c 8.12045,7.35109 17.17105,33.21627 17.17105,33.21627 0,0 -20.05574,-6.69528 -31.99024,-13.38801 -11.93451,-6.69272 -26.01028,-18.35032 -38.43256,-27.77653 -12.42228,-9.4262 -28.71635,-20.53159 -36.09886,-28.74164 -7.38249,-8.21004 -13.28371,-10.62184 -14.76419,-16.2084 -9.74947,-23.39743 47.85576,28.10268 79.38888,39.77206 11.21052,5.61294 16.60546,5.77516 24.72592,13.12625 z"
           id="path4328-4-2-0" />
        <path
           inkscape:connector-curvature="0"
           style="fill:#323232;fill-opacity:1;fill-rule:evenodd;stroke:#ffffff;stroke-width:1px;stroke-linecap:butt;stroke-linejoin:miter;stroke-opacity:1"
           d="m 517.69488,97.890872 c 0,0 -8.17942,20.443298 -11.5446,28.385788 -3.36519,7.94247 -4.78493,9.48998 -8.51722,19.31796 -3.73229,9.82799 -5.82129,26.81354 -12.82639,39.95644 -7.0051,13.1429 -21.55465,29.74631 -29.38558,37.18501 -7.83093,7.43871 -6.07429,5.29307 -14.19618,10.07937 -8.12188,4.78629 -25.68995,13.80985 -35.29559,16.94675 -9.60566,3.1369 -19.85962,3.78581 -21.11492,3.92234 -1.25529,0.13653 -6.01221,-15.46351 -4.90293,-26.39364 1.10928,-10.93012 9.11528,-26.38015 14.7085,-36.19831 5.59323,-9.81818 9.84161,-15.47866 17.37719,-22.87271 7.5356,-7.39405 18.11979,-13.71029 27.95788,-20.41632 9.83809,-6.70605 22.97461,-15.00916 31.07981,-19.73977 8.10519,-4.73061 9.30268,-4.29806 17.18928,-9.18559 7.8866,-4.88755 29.47075,-20.987318 29.47075,-20.987318 z"
           id="path4330-9-8-2" />
        <path
           inkscape:connector-curvature="0"
           style="fill:#323232;fill-opacity:1;fill-rule:evenodd;stroke:#ffffff;stroke-width:1px;stroke-linecap:butt;stroke-linejoin:miter;stroke-opacity:1"
           d="m 472.50335,69.630149 c 0.30498,8.436661 -12.32049,31.626181 -15.57906,43.609001 -3.25858,11.9828 4.80135,20.73729 -5.26817,27.70312 -10.06951,6.96582 -29.96032,17.92101 -39.18414,26.97193 -9.22382,9.05093 -15.25741,20.80695 -18.28648,22.9208 -3.02903,2.11383 -13.68987,32.60635 -14.27403,36.45589 -0.58418,3.84955 -8.96714,7.69464 -13.39857,5.26772 -4.43142,-2.42693 -2.75451,-8.30161 -3.07054,-15.61896 -0.31604,-7.31736 -2.55983,-20.84689 3.01516,-27.86454 5.57497,-7.01762 8.31005,-10.14582 13.11167,-18.64915 4.80159,-8.50332 7.73468,-20.15335 9.17055,-26.85743 1.43586,-6.70409 11.96208,-16.7906 21.216,-25.88131 9.25394,-9.09071 24.70607,-18.783899 34.80697,-27.511955 10.10086,-8.72806 25.98732,-24.520464 25.98732,-24.520464 0,0 1.44833,-4.461314 1.75332,3.975348 z"
           id="path4332-7-9-7" />
        <path
           inkscape:connector-curvature="0"
           style="fill:#323232;fill-opacity:1;fill-rule:evenodd;stroke:#ffffff;stroke-width:1px;stroke-linecap:butt;stroke-linejoin:miter;stroke-opacity:1"
           d="m 450.83903,84.383014 c 6.94534,-11.023893 5.49099,-20.920985 5.91984,-27.316758 0.42885,-6.395776 -0.83468,-10.476765 -0.83468,-10.476765 0,0 -2.71648,3.853877 -6.80097,8.004895 -4.08449,4.151021 -12.98556,9.768624 -18.36552,16.121461 -5.37996,6.352837 -7.87853,15.448734 -13.44219,21.68263 -5.56367,6.233893 -16.18897,9.803893 -19.32287,15.260283 -0.0627,11.39595 -4.27762,14.44429 -7.79587,32.95699 5.87801,-11.35934 15.68489,-20.42314 20.95843,-25.44685 5.27353,-5.02372 32.73848,-19.761995 39.68383,-30.785886 z"
           id="path4334-97-3-6" />
      </g>
      <path
         inkscape:connector-curvature="0"
         style="display:inline;opacity:1;fill:none;fill-opacity:1;fill-rule:nonzero;stroke:#ffffff;stroke-width:18;stroke-linecap:round;stroke-linejoin:miter;stroke-miterlimit:4;stroke-dasharray:none;stroke-dashoffset:0;stroke-opacity:1"
         id="path13864-9-5-6-1"
         d="m 1138.9417,-18.873688 a 101.55324,101.55324 0 0 1 -100.6316,101.549056 101.55324,101.55324 0 0 1 -102.45818,-99.705823 101.55324,101.55324 0 0 1 98.77188,-103.358835 101.55324,101.55324 0 0 1 104.251,97.829744" />
      <path
         inkscape:connector-curvature="0"
         style="display:inline;opacity:1;fill:none;fill-opacity:1;fill-rule:nonzero;stroke:#323232;stroke-width:16;stroke-linecap:round;stroke-linejoin:miter;stroke-miterlimit:4;stroke-dasharray:none;stroke-dashoffset:0;stroke-opacity:1"
         id="path13864-1-8-3"
         d="M 1138.9419,-18.889313 A 101.55324,101.55324 0 0 1 1038.3103,82.659743 101.55324,101.55324 0 0 1 935.85216,-17.04608 a 101.55324,101.55324 0 0 1 98.77184,-103.35883 101.55324,101.55324 0 0 1 104.251,97.829739" />
    </g>
  </g>
</svg>
