<?xml version="1.0" encoding="UTF-8" standalone="no"?>
<!-- Created with Inkscape (http://www.inkscape.org/) -->

<svg
   xmlns:dc="http://purl.org/dc/elements/1.1/"
   xmlns:cc="http://creativecommons.org/ns#"
   xmlns:rdf="http://www.w3.org/1999/02/22-rdf-syntax-ns#"
   xmlns:svg="http://www.w3.org/2000/svg"
   xmlns="http://www.w3.org/2000/svg"
   xmlns:sodipodi="http://sodipodi.sourceforge.net/DTD/sodipodi-0.dtd"
   xmlns:inkscape="http://www.inkscape.org/namespaces/inkscape"
   id="svg2"
   version="1.1"
   inkscape:version="0.91 r13725"
   xml:space="preserve"
   width="888.0451"
   height="300.51672"
   viewBox="0 0 888.0451 300.51672"
   sodipodi:docname="WMDE_Logo_horizontal_white Software.svg"><metadata
     id="metadata8"><rdf:RDF><cc:Work
         rdf:about=""><dc:format>image/svg+xml</dc:format><dc:type
           rdf:resource="http://purl.org/dc/dcmitype/StillImage" /><dc:title></dc:title></cc:Work></rdf:RDF></metadata><defs
     id="defs6"><clipPath
       clipPathUnits="userSpaceOnUse"
       id="clipPath18"><path
         d="m 0,0.285156 7438.97,0 0,10517.199844 -7438.97,0 L 0,0.285156 Z"
         id="path20"
         inkscape:connector-curvature="0"
         style="clip-rule:evenodd" /></clipPath></defs><sodipodi:namedview
     pagecolor="#ffffff"
     bordercolor="#666666"
     borderopacity="1"
     objecttolerance="10"
     gridtolerance="10"
     guidetolerance="10"
     inkscape:pageopacity="0"
     inkscape:pageshadow="2"
     inkscape:window-width="1920"
     inkscape:window-height="1056"
     id="namedview4"
     showgrid="false"
     inkscape:zoom="0.71787072"
     inkscape:cx="136.34512"
     inkscape:cy="39.078854"
     inkscape:window-x="0"
     inkscape:window-y="24"
     inkscape:window-maximized="1"
     inkscape:current-layer="g12"
     fit-margin-top="0"
     fit-margin-left="0"
     fit-margin-right="0"
     fit-margin-bottom="0" /><g
     id="g10"
     inkscape:groupmode="layer"
     inkscape:label="ink_ext_XXXXXX"
     transform="matrix(1.25,0,0,-1.25,-6.8520415,1209.195)"><g
       id="g12"
       transform="scale(0.1,0.1)"
       style="fill:#000000"><path
         d="m 2181.61,9016.02 110.81,358.94 145.67,0 109.68,-358.94 124.12,358.94 150.77,0 -217.93,-624.1 -103.73,0 -136.31,433.73 -136.03,-433.73 -102.87,0 -217.94,624.1 151.05,0 122.71,-358.94"
         style="fill:#ffffff;fill-opacity:1;fill-rule:evenodd;stroke:none"
         id="path22"
         inkscape:connector-curvature="0" /><path
         d="m 2896.63,8750.86 139.43,0 0,624.109 -139.43,0 0,-624.109 z"
         style="fill:#ffffff;fill-opacity:1;fill-rule:evenodd;stroke:none"
         id="path24"
         inkscape:connector-curvature="0" /><path
         d="m 3189.95,9374.96 139.15,0 0,-256.67 235.79,256.67 172.59,0 -248.26,-275.65 c 21.82,-29.46 61.21,-85.27 118.74,-166.58 57.82,-81.3 101.18,-141.65 129.52,-181.87 l -162.96,0 -183.07,246.75 -62.35,-69.41 0,-176.5 -139.15,0 0,623.26"
         style="fill:#ffffff;fill-opacity:1;fill-rule:evenodd;stroke:none"
         id="path26"
         inkscape:connector-curvature="0" /><path
         d="m 3823.63,8750.86 139.434,0 0,624.109 -139.434,0 0,-624.109 z"
         style="fill:#ffffff;fill-opacity:1;fill-rule:evenodd;stroke:none"
         id="path28"
         inkscape:connector-curvature="0" /><path
         d="m 4675.25,9144.07 -168.62,-341.37 -83.32,0 -168.06,341.37 0,-393.21 -139.15,0 0,624.1 188.46,0 160.69,-342.51 161.54,342.51 187.61,0 0,-624.1 -139.15,0 0,393.21"
         style="fill:#ffffff;fill-opacity:1;fill-rule:evenodd;stroke:none"
         id="path30"
         inkscape:connector-curvature="0" /><path
         d="m 5418.04,9374.96 0,-124.08 -311.17,0 0,-128.62 279.72,0 0,-118.7 -279.72,0 0,-129.18 320.52,0 0,-123.52 -460.24,0 0,624.1 450.89,0"
         style="fill:#ffffff;fill-opacity:1;fill-rule:evenodd;stroke:none"
         id="path32"
         inkscape:connector-curvature="0" /><path
         d="m 6028.2,9293.66 c 59.8,-54.4 89.27,-129.75 89.27,-226.93 0,-97.17 -28.9,-173.94 -87.29,-230.32 -57.81,-56.37 -146.51,-84.71 -265.82,-84.71 l -213.4,0 0,624.11 220.48,0 c 112.23,-0.56 197.53,-27.47 256.76,-82.15 z m -101.74,-371.12 c 34.01,32.01 51.3,78.75 51.3,140.23 0,61.19 -17.29,108.22 -51.3,141.93 -34.29,32.58 -86.72,49.86 -157.57,49.86 l -77.37,0 0,-379.34 88.42,0 c 63.2,-0.56 111.66,15.58 146.52,47.32"
         style="fill:#ffffff;fill-opacity:1;fill-rule:evenodd;stroke:none"
         id="path34"
         inkscape:connector-curvature="0" /><path
         d="m 6237.92,8750.86 139.434,0 0,624.109 -139.434,0 0,-624.109 z"
         style="fill:#ffffff;fill-opacity:1;fill-rule:evenodd;stroke:none"
         id="path36"
         inkscape:connector-curvature="0" /><path
         d="m 6975.61,8750.86 -57.82,134.56 -261.86,0 -57.81,-134.56 -148.22,0 269.8,624.1 134.61,0 269.8,-624.1 -148.5,0 z m -188.46,438.54 -78.51,-181.31 156.16,0 -77.65,181.31"
         style="fill:#ffffff;fill-opacity:1;fill-rule:evenodd;stroke:none"
         id="path38"
         inkscape:connector-curvature="0" /><path
         d="m 2322.75,8475.77 c 26.35,-23.51 39.39,-56.94 39.39,-99.72 0,-42.78 -12.47,-76.21 -37.98,-101.14 -25.78,-24.93 -64.33,-37.39 -117.61,-37.39 l -90.69,0 0,273.1 93.81,0 c 48.74,1.41 86.15,-11.05 113.08,-34.85 z m -7.09,-100.29 c 0,62.33 -36.27,93.77 -107.97,93.77 l -45.92,0 0,-186.97 51.3,0 c 32.88,0 58.38,7.65 76.23,23.51 17.01,15.87 26.36,38.81 26.36,69.69"
         style="fill:#ffffff;fill-opacity:1;fill-rule:evenodd;stroke:none"
         id="path40"
         inkscape:connector-curvature="0" /><path
         d="m 2791.21,8512.03 0,-43.34 -145.96,0 0,-72.24 130.94,0 0,-41.36 -130.94,0 0,-72.81 150.49,0 0,-43.35 -196.4,0 0,273.1 191.87,0"
         style="fill:#ffffff;fill-opacity:1;fill-rule:evenodd;stroke:none"
         id="path42"
         inkscape:connector-curvature="0" /><path
         d="m 3094.73,8300.97 c 12.75,-14.44 29.75,-21.53 50.73,-21.53 21.54,0 37.97,7.09 50.44,21.53 12.47,14.45 19.27,34.28 19.27,59.21 l 0,151 45.91,0 0,-152.98 c 0,-39.38 -10.48,-69.69 -32.3,-90.66 -21.54,-20.96 -49.32,-32.01 -83.32,-32.01 -34.3,0 -61.78,10.49 -83.32,32.01 -21.82,20.97 -32.31,51.28 -32.31,90.66 l 0,152.98 45.91,0 0,-151 c 0,-24.93 6.52,-44.76 18.99,-59.21"
         style="fill:#ffffff;fill-opacity:1;fill-rule:evenodd;stroke:none"
         id="path44"
         inkscape:connector-curvature="0" /><path
         d="m 3615.05,8469.25 0,-231.17 -45.91,0 0,231.17 -82.75,0 0,41.93 212.26,0 0,-41.93 -83.6,0"
         style="fill:#ffffff;fill-opacity:1;fill-rule:evenodd;stroke:none"
         id="path46"
         inkscape:connector-curvature="0" /><path
         d="m 4008.69,8475.77 c -13.03,0 -24.37,-2.55 -32.87,-7.93 -8.5,-5.1 -13.04,-13.6 -13.04,-24.93 0,-11.05 4.54,-19.55 13.04,-25.5 8.5,-5.95 26.92,-12.46 55.26,-18.98 28.06,-6.8 49.31,-16.43 62.92,-28.33 14.45,-12.47 20.97,-30.31 20.97,-53.83 0,-23.51 -9.07,-43.34 -26.92,-57.79 -17.58,-14.45 -41.38,-22.38 -70.85,-22.38 -42.8,0 -80.77,14.45 -113.65,43.91 l 28.91,34.85 c 27.49,-24.09 56.4,-35.98 86.15,-35.98 15.02,0 26.93,3.11 35.43,9.91 8.5,6.52 13.03,15.02 13.03,25.5 0,10.48 -3.96,18.98 -12.46,24.93 -7.94,5.95 -22.4,11.05 -42.8,15.87 -20.12,4.53 -35.42,9.06 -45.91,13.03 -10.49,3.96 -19.56,9.06 -27.49,15.86 -16.44,12.47 -24.37,30.88 -24.37,56.38 0,25.5 9.35,44.48 27.49,58.36 18.42,13.88 41.37,20.39 68.58,20.39 17.57,0 34.57,-2.54 51.86,-8.49 17.01,-5.95 32.03,-13.89 44.49,-24.37 l -24.93,-34.84 c -7.94,7.36 -18.99,13.31 -32.88,17.84 -13.03,3.97 -26.07,6.52 -39.96,6.52"
         style="fill:#ffffff;fill-opacity:1;fill-rule:evenodd;stroke:none"
         id="path48"
         inkscape:connector-curvature="0" /><path
         d="m 4475.45,8280.01 c 15.59,0 29.48,2.83 41.38,7.93 11.05,5.38 23.52,13.88 35.99,25.78 l 29.47,-30.31 c -28.9,-32.01 -64.33,-47.88 -104.85,-47.88 -41.38,0 -75.67,13.03 -103.16,39.95 -26.92,26.34 -40.81,60.34 -40.81,101.13 0,40.8 13.89,74.23 41.38,101.71 27.49,26.91 63.19,40.79 105.14,40.79 41.94,0 77.37,-15.86 106.27,-46.74 l -29.47,-32.01 c -13.04,12.46 -25.51,20.96 -36.84,26.34 -11.91,5.1 -24.94,7.09 -40.53,7.09 -27.77,0 -50.73,-9.07 -69.72,-26.91 -18.99,-17.57 -28.34,-40.8 -28.34,-68.28 0,-27.48 9.35,-51.28 28.34,-69.69 18.43,-19.55 39.96,-28.9 65.75,-28.9"
         style="fill:#ffffff;fill-opacity:1;fill-rule:evenodd;stroke:none"
         id="path50"
         inkscape:connector-curvature="0" /><path
         d="m 4816.95,8238.08 0,273.1 45.91,0 0,-118.13 136.03,0 0,118.13 45.91,0 0,-273.1 -45.91,0 0,111.62 -136.03,0 0,-111.62 -45.91,0"
         style="fill:#ffffff;fill-opacity:1;fill-rule:evenodd;stroke:none"
         id="path52"
         inkscape:connector-curvature="0" /><path
         d="m 5298.45,8238.08 0,273.1 45.91,0 0,-229.19 124.98,0 0,-43.91 -170.89,0"
         style="fill:#ffffff;fill-opacity:1;fill-rule:evenodd;stroke:none"
         id="path54"
         inkscape:connector-curvature="0" /><path
         d="m 5736.87,8300.41 -27.49,-62.33 -49.31,0 120.16,273.1 49.31,0 120.16,-273.1 -49.31,0 -27.49,62.33 -136.03,0 z m 118.17,42.78 -49.88,112.18 -49.87,-112.18 99.75,0"
         style="fill:#ffffff;fill-opacity:1;fill-rule:evenodd;stroke:none"
         id="path56"
         inkscape:connector-curvature="0" /><path
         d="m 6371.4,8512.03 45.91,0 0,-273.1 -49.88,0 -155.02,199.45 0,-199.45 -45.91,0 0,273.1 45.91,0 158.99,-204.26 0,204.26"
         style="fill:#ffffff;fill-opacity:1;fill-rule:evenodd;stroke:none"
         id="path58"
         inkscape:connector-curvature="0" /><path
         d="m 6878.4,8475.77 c 26.36,-23.51 39.39,-56.94 39.39,-99.72 0,-42.78 -12.47,-76.21 -37.97,-101.14 -25.79,-24.93 -64.33,-37.39 -117.61,-37.39 l -90.69,0 0,273.1 93.8,0 c 48.75,1.41 86.16,-11.05 113.08,-34.85 z m -7.08,-100.29 c 0,62.33 -36.28,93.77 -107.98,93.77 l -45.91,0 0,-186.97 51.3,0 c 32.87,0 58.38,7.65 76.23,23.51 17.57,15.87 26.36,38.81 26.36,69.69"
         style="fill:#ffffff;fill-opacity:1;fill-rule:evenodd;stroke:none"
         id="path60"
         inkscape:connector-curvature="0" /><path
         d="m 927,8403.25 c 234.94,33.43 416.32,234.85 416.32,479.05 0,148.17 -67.17,280.75 -172.03,370 L 927,9008.38 l 0,-605.13"
         style="fill:#ffffff;fill-opacity:1;fill-rule:evenodd;stroke:none"
         id="path62"
         inkscape:connector-curvature="0" /><path
         d="m 790.969,8403.25 0,605.13 -244.289,243.92 c -105.141,-88.68 -172.024,-221.83 -172.024,-370 0,-244.2 181.09,-446.19 416.313,-479.05"
         style="fill:#ffffff;fill-opacity:1;fill-rule:evenodd;stroke:none"
         id="path64"
         inkscape:connector-curvature="0" /><path
         d="m 1280.12,9302.72 c 112.22,-112.18 174.57,-261.48 174.57,-420.42 0,-158.64 -61.49,-308.23 -174.57,-420.41 -112.23,-112.19 -261.58,-174.51 -420.569,-174.51 -158.703,0 -308.336,61.76 -420.563,174.51 -112.226,112.75 -174.574,261.77 -174.574,420.41 0,158.94 61.781,308.24 174.574,420.42 9.918,9.92 19.555,19.27 29.473,27.76 l -135.75,135.71 c -9.918,-9.07 -19.836,-18.42 -29.473,-28.33 -72.265,-71.96 -129.23,-156.1 -168.625,-249.88 -41.3747,-96.88 -61.781,-200 -61.781,-306.24 0,-106.24 20.9727,-209.36 61.781,-306.25 39.395,-94.05 96.36,-177.91 168.625,-250.15 71.985,-71.96 156.153,-129.19 249.957,-168.57 97.207,-41.36 200.082,-61.47 306.356,-61.47 106.277,0 209.429,20.96 306.639,61.47 93.81,39.38 177.69,96.61 249.96,168.57 71.98,72.24 129.23,156.1 168.62,250.15 41.38,96.89 61.5,200.01 61.5,306.25 0,106.24 -20.97,209.36 -61.5,306.24 -39.39,93.78 -96.64,177.92 -168.62,249.88 -9.92,9.91 -19.84,19.26 -29.47,28.33 l -136.04,-135.71 c 9.92,-8.49 19.84,-17.84 29.48,-27.76"
         style="fill:#ffffff;fill-opacity:1;fill-rule:evenodd;stroke:none"
         id="path66"
         inkscape:connector-curvature="0" /><path
         d="m 1104.69,9428.23 c 0,-45.33 -10.48,-83.58 -32.87,-122.68 -22.67,-39.37 -50.73,-67.42 -90.121,-90.09 -39.109,-22.37 -77.371,-32.85 -122.715,-32.85 -45.058,0 -83.601,10.48 -122.711,32.85 -39.109,22.67 -67.164,50.72 -89.839,90.09 -22.672,39.1 -32.871,77.35 -32.871,122.68 0,45.04 10.199,83.57 32.871,122.66 22.675,39.1 50.73,67.15 89.839,89.81 39.11,22.66 77.653,32.86 122.711,32.86 45.344,0 83.606,-10.2 122.715,-32.86 39.391,-22.66 67.451,-50.71 90.121,-89.81 22.39,-39.09 32.87,-77.62 32.87,-122.66"
         style="fill:#ffffff;fill-opacity:1;fill-rule:evenodd;stroke:none"
         id="path68"
         inkscape:connector-curvature="0" /><g
         transform="scale(1,-1)"
         style="font-style:normal;font-weight:normal;font-size:404.36047363px;line-height:125%;font-family:sans-serif;letter-spacing:0px;word-spacing:0px;fill:#ffffff;fill-opacity:1;stroke:none;stroke-width:1px;stroke-linecap:butt;stroke-linejoin:miter;stroke-opacity:1"
         id="text8293"><path
           d="m 168.84599,-7632.1375 c -58.63227,0 -97.855239,28.7096 -97.855239,73.1893 0,101.4944 159.318029,61.8671 158.913669,136.2694 0,27.0922 -25.47471,43.671 -66.31512,43.671 -31.94448,0 -67.93256,-14.557 -94.215991,-40.0317 l -14.556977,29.1139 c 26.687791,25.4748 67.123838,43.2666 108.368608,43.2666 60.65407,0 102.3032,-30.327 102.3032,-77.6372 0.40436,-102.7076 -158.91367,-64.6977 -158.91367,-137.4826 0,-23.8572 23.85727,-37.6055 60.24971,-37.6055 22.64419,0 52.56686,6.8741 78.04157,23.8573 l 13.74826,-30.3271 c -23.45291,-15.77 -57.01483,-26.2834 -89.76802,-26.2834 z"
           style="font-style:normal;font-variant:normal;font-weight:300;font-stretch:normal;font-family:Montserrat;-inkscape-font-specification:'Montserrat Light';fill:#ffffff"
           id="path8317"
           inkscape:connector-curvature="0" /><path
           d="m 414.02111,-7561.7788 c -63.08023,0 -107.96424,43.671 -107.96424,107.1556 0,63.8889 44.88401,107.9642 107.96424,107.9642 63.08024,0 107.96425,-44.0753 107.96425,-107.9642 0,-63.4846 -44.88401,-107.1556 -107.96425,-107.1556 z m 0,28.7096 c 44.47966,0 76.42413,32.3489 76.42413,78.8503 0,46.9058 -31.94447,79.2547 -76.42413,79.2547 -44.47965,0 -76.42413,-32.3489 -76.42413,-79.2547 0,-46.5014 31.94448,-78.8503 76.42413,-78.8503 z"
           style="font-style:normal;font-variant:normal;font-weight:300;font-stretch:normal;font-family:Montserrat;-inkscape-font-specification:'Montserrat Light';fill:#ffffff"
           id="path8319"
           inkscape:connector-curvature="0" /><path
           d="m 650.68571,-7620.0067 c 10.91774,0 22.64419,4.0436 32.34884,10.9178 l 12.93954,-25.4747 c -12.93954,-9.7047 -29.51832,-14.557 -45.69274,-14.9614 -35.58372,0 -68.33692,25.0704 -68.33692,71.5718 l 0,23.4529 -27.49651,0 0,25.8791 27.49651,0 0,180.7491 31.13576,0 0,-180.7491 61.05843,0 0,-25.8791 -61.05843,0 0,-27.4965 c 0,-24.666 16.98314,-38.0099 37.60552,-38.0099 z"
           style="font-style:normal;font-variant:normal;font-weight:300;font-stretch:normal;font-family:Montserrat;-inkscape-font-specification:'Montserrat Light';fill:#ffffff"
           id="path8321"
           inkscape:connector-curvature="0" /><path
           d="m 810.03533,-7387.9038 c -11.72645,7.2785 -23.04854,10.9178 -33.96627,10.9178 -18.19623,0 -28.30524,-9.7047 -28.30524,-35.5837 l 0,-116.0515 67.5282,0 0,-25.8791 -67.5282,0.4044 0,-56.2061 -31.13575,0 0,56.2061 -30.7314,0 0,25.4747 30.7314,0 0,121.7125 c 0,42.0535 23.04854,60.6541 54.1843,60.6541 16.98314,-0.4044 33.15756,-6.0654 48.1189,-16.1744 l -8.89594,-25.4748 z"
           style="font-style:normal;font-variant:normal;font-weight:300;font-stretch:normal;font-family:Montserrat;-inkscape-font-specification:'Montserrat Light';fill:#ffffff"
           id="path8323"
           inkscape:connector-curvature="0" /><path
           d="m 1100.2145,-7347.8721 78.8503,-213.0979 -32.7532,0 -62.2715,180.3447 -62.6759,-180.3447 -33.15753,0 -61.86716,180.3447 -63.08023,-180.3447 -33.15756,0 79.65901,213.0979 32.7532,0 62.27147,-173.0663 62.6759,173.0663 32.7532,0 z"
           style="font-style:normal;font-variant:normal;font-weight:300;font-stretch:normal;font-family:Montserrat;-inkscape-font-specification:'Montserrat Light';fill:#ffffff"
           id="path8325"
           inkscape:connector-curvature="0" /><path
           d="m 1342.6729,-7347.8721 30.7314,0 -0.4043,-140.7174 c -0.4044,-45.6927 -29.5184,-73.5936 -82.0852,-73.5936 -36.3925,0 -59.441,10.5134 -86.9375,28.7096 l 13.3439,23.0485 c 22.2398,-15.3657 44.0753,-24.2616 67.5282,-24.2616 37.6055,0 57.0148,18.6006 57.0148,49.7363 l 0,12.5352 -69.9544,0 c -50.1407,0.4044 -79.659,23.8573 -79.659,61.0584 0,36.7968 28.3053,65.1021 72.3806,65.1021 33.9662,0 61.0584,-11.3221 78.0415,-34.3707 l 0,32.7532 z m -71.9761,-25.879 c -29.9227,0 -48.9277,-15.3657 -48.9277,-38.8186 0,-23.453 18.6006,-34.3707 54.1843,-34.3707 l 66.3152,0 0,25.4747 c -8.0872,29.5183 -35.5838,47.7146 -71.5718,47.7146 z"
           style="font-style:normal;font-variant:normal;font-weight:300;font-stretch:normal;font-family:Montserrat;-inkscape-font-specification:'Montserrat Light';fill:#ffffff"
           id="path8327"
           inkscape:connector-curvature="0" /><path
           d="m 1474.9682,-7560.97 -31.5401,0 0,213.0979 31.5401,0 0,-113.2209 c 3.6393,-42.0535 31.5402,-69.9544 76.4242,-69.1456 l 0,-31.9445 c -35.9881,0.4043 -62.2715,17.3875 -76.4242,48.5232 l 0,-47.3101 z"
           style="font-style:normal;font-variant:normal;font-weight:300;font-stretch:normal;font-family:Montserrat;-inkscape-font-specification:'Montserrat Light';fill:#ffffff"
           id="path8329"
           inkscape:connector-curvature="0" /><path
           d="m 1677.5908,-7561.7788 c -61.8672,0 -105.5381,44.0753 -105.5381,107.5599 0,63.4846 43.2666,107.5599 105.9424,107.5599 35.5838,0 65.5064,-12.9395 85.7245,-35.5837 l -17.3876,-18.6006 c -16.5787,17.3875 -39.6273,26.6878 -65.9107,26.6878 -41.2448,0 -71.5718,-26.2834 -77.2329,-67.9326 l 173.875,0 c 3.2349,-72.3805 -30.7314,-120.095 -99.4726,-119.6907 z m -74.4024,93.8117 c 4.8524,-40.4361 33.9663,-66.7195 74.4024,-66.7195 41.6491,0 69.1456,25.8791 71.1674,66.7195 l -145.5698,0 z"
           style="font-style:normal;font-variant:normal;font-weight:300;font-stretch:normal;font-family:Montserrat;-inkscape-font-specification:'Montserrat Light';fill:#ffffff"
           id="path8331"
           inkscape:connector-curvature="0" /><path
           d="m 1946.2187,-7630.9244 0,283.0523 113.221,0 c 83.2982,0 146.7828,-61.0584 146.7828,-141.5261 0,-80.4678 -63.0802,-141.5262 -145.5697,-141.5262 l -114.4341,0 z m 32.3489,31.1358 81.2764,0 c 63.4846,0 113.6253,47.3101 113.6253,110.7947 0,63.0803 -49.3319,110.3904 -112.4122,110.3904 l -82.4895,0 0,-221.1851 z"
           style="font-style:normal;font-variant:normal;font-weight:300;font-stretch:normal;font-family:Montserrat;-inkscape-font-specification:'Montserrat Light';fill:#ffffff"
           id="path8333"
           inkscape:connector-curvature="0" /><path
           d="m 2344.9434,-7561.7788 c -61.8671,0 -105.5381,44.0753 -105.5381,107.5599 0,63.4846 43.2666,107.5599 105.9425,107.5599 35.5837,0 65.5064,-12.9395 85.7244,-35.5837 l -17.3875,-18.6006 c -16.5788,17.3875 -39.6273,26.6878 -65.9107,26.6878 -41.2448,0 -71.5719,-26.2834 -77.2329,-67.9326 l 173.875,0 c 3.2349,-72.3805 -30.7314,-120.095 -99.4727,-119.6907 z m -74.4023,93.8117 c 4.8523,-40.4361 33.9663,-66.7195 74.4023,-66.7195 41.6492,0 69.1457,25.8791 71.1675,66.7195 l -145.5698,0 z"
           style="font-style:normal;font-variant:normal;font-weight:300;font-stretch:normal;font-family:Montserrat;-inkscape-font-specification:'Montserrat Light';fill:#ffffff"
           id="path8335"
           inkscape:connector-curvature="0" /><path
           d="m 2571.916,-7347.8721 83.7026,-213.0979 -31.9445,0 -67.5282,180.3447 -67.9325,-180.3447 -33.5619,0 84.5113,213.0979 32.7532,0 z"
           style="font-style:normal;font-variant:normal;font-weight:300;font-stretch:normal;font-family:Montserrat;-inkscape-font-specification:'Montserrat Light';fill:#ffffff"
           id="path8337"
           inkscape:connector-curvature="0" /><path
           d="m 2769.838,-7561.7788 c -61.8672,0 -105.5381,44.0753 -105.5381,107.5599 0,63.4846 43.2665,107.5599 105.9424,107.5599 35.5837,0 65.5064,-12.9395 85.7244,-35.5837 l -17.3875,-18.6006 c -16.5787,17.3875 -39.6273,26.6878 -65.9107,26.6878 -41.2448,0 -71.5718,-26.2834 -77.2329,-67.9326 l 173.875,0 c 3.2349,-72.3805 -30.7314,-120.095 -99.4726,-119.6907 z m -74.4024,93.8117 c 4.8524,-40.4361 33.9663,-66.7195 74.4024,-66.7195 41.6491,0 69.1456,25.8791 71.1674,66.7195 l -145.5698,0 z"
           style="font-style:normal;font-variant:normal;font-weight:300;font-stretch:normal;font-family:Montserrat;-inkscape-font-specification:'Montserrat Light';fill:#ffffff"
           id="path8339"
           inkscape:connector-curvature="0" /><path
           d="m 2957.0126,-7347.8721 0,-300.0354 -31.5401,0 0,300.0354 31.5401,0 z"
           style="font-style:normal;font-variant:normal;font-weight:300;font-stretch:normal;font-family:Montserrat;-inkscape-font-specification:'Montserrat Light';fill:#ffffff"
           id="path8341"
           inkscape:connector-curvature="0" /><path
           d="m 3122.1306,-7561.7788 c -63.0803,0 -107.9643,43.671 -107.9643,107.1556 0,63.8889 44.884,107.9642 107.9643,107.9642 63.0802,0 107.9642,-44.0753 107.9642,-107.9642 0,-63.4846 -44.884,-107.1556 -107.9642,-107.1556 z m 0,28.7096 c 44.4796,0 76.4241,32.3489 76.4241,78.8503 0,46.9058 -31.9445,79.2547 -76.4241,79.2547 -44.4797,0 -76.4241,-32.3489 -76.4241,-79.2547 0,-46.5014 31.9444,-78.8503 76.4241,-78.8503 z"
           style="font-style:normal;font-variant:normal;font-weight:300;font-stretch:normal;font-family:Montserrat;-inkscape-font-specification:'Montserrat Light';fill:#ffffff"
           id="path8343"
           inkscape:connector-curvature="0" /><path
           d="m 3400.8107,-7562.1831 c -37.2012,0 -66.3151,17.3875 -82.0852,47.3102 l 0,-46.0971 -31.5401,0 0,291.5439 31.5401,0 0,-124.1387 c 15.7701,29.5183 44.884,46.9058 82.8939,46.9058 60.2497,0 101.4945,-44.0753 101.4945,-107.1555 0,-63.889 -42.0535,-108.3686 -102.3032,-108.3686 z m -5.6611,186.8145 c -44.884,0 -76.4241,-32.7532 -76.4241,-79.2546 0,-46.0971 31.5401,-79.2547 76.4241,-79.2547 44.4797,0 76.0198,33.5619 76.0198,79.2547 0,46.0971 -31.5401,79.2546 -76.0198,79.2546 z"
           style="font-style:normal;font-variant:normal;font-weight:300;font-stretch:normal;font-family:Montserrat;-inkscape-font-specification:'Montserrat Light';fill:#ffffff"
           id="path8345"
           inkscape:connector-curvature="0" /><path
           d="m 3831.3662,-7562.1831 c -40.8404,0.4043 -70.7631,18.1962 -84.107,55.8017 -8.8959,-35.1793 -36.3924,-55.8017 -76.4241,-55.8017 -38.4143,0.4043 -67.1238,16.1744 -81.2765,49.332 l 0,-48.1189 -31.1357,0 0,213.0979 31.1357,0 0,-104.7293 c 0,-45.6928 26.2835,-77.2329 69.9544,-78.446 37.2012,0 59.0366,22.2399 59.0366,60.2497 l 0,122.9256 31.9445,0 0,-104.7293 c 0,-45.6928 25.4747,-77.2329 69.55,-78.446 36.7968,0 59.0366,22.2399 59.0366,60.2497 l 0,122.9256 31.5402,0 0,-131.4171 c 0,-51.3538 -29.5184,-82.8939 -79.2547,-82.8939 z"
           style="font-style:normal;font-variant:normal;font-weight:300;font-stretch:normal;font-family:Montserrat;-inkscape-font-specification:'Montserrat Light';fill:#ffffff"
           id="path8347"
           inkscape:connector-curvature="0" /><path
           d="m 4065.055,-7561.7788 c -61.8671,0 -105.5381,44.0753 -105.5381,107.5599 0,63.4846 43.2666,107.5599 105.9425,107.5599 35.5837,0 65.5064,-12.9395 85.7244,-35.5837 l -17.3875,-18.6006 c -16.5788,17.3875 -39.6273,26.6878 -65.9108,26.6878 -41.2447,0 -71.5718,-26.2834 -77.2328,-67.9326 l 173.875,0 c 3.2349,-72.3805 -30.7314,-120.095 -99.4727,-119.6907 z m -74.4023,93.8117 c 4.8523,-40.4361 33.9663,-66.7195 74.4023,-66.7195 41.6491,0 69.1456,25.8791 71.1674,66.7195 l -145.5697,0 z"
           style="font-style:normal;font-variant:normal;font-weight:300;font-stretch:normal;font-family:Montserrat;-inkscape-font-specification:'Montserrat Light';fill:#ffffff"
           id="path8349"
           inkscape:connector-curvature="0" /><path
           d="m 4332.6972,-7562.1831 c -38.8186,0.4043 -67.5282,15.77 -82.4896,48.1189 l 0,-46.9058 -31.5401,0 0,213.0979 31.5401,0 0,-114.434 c 3.6393,-40.436 29.5183,-67.9325 71.5718,-68.3369 37.6056,0 60.2497,22.2398 60.2497,59.8453 l 0,122.9256 31.5402,0 0,-131.4171 c 0,-51.3538 -29.9227,-82.8939 -80.8721,-82.8939 z"
           style="font-style:normal;font-variant:normal;font-weight:300;font-stretch:normal;font-family:Montserrat;-inkscape-font-specification:'Montserrat Light';fill:#ffffff"
           id="path8351"
           inkscape:connector-curvature="0" /><path
           d="m 4585.1194,-7387.9038 c -11.7264,7.2785 -23.0485,10.9178 -33.9662,10.9178 -18.1963,0 -28.3053,-9.7047 -28.3053,-35.5837 l 0,-116.0515 67.5282,0 0,-25.8791 -67.5282,0.4044 0,-56.2061 -31.1357,0 0,56.2061 -30.7314,0 0,25.4747 30.7314,0 0,121.7125 c 0,42.0535 23.0485,60.6541 54.1843,60.6541 16.9831,-0.4044 33.1575,-6.0654 48.1189,-16.1744 l -8.896,-25.4748 z"
           style="font-style:normal;font-variant:normal;font-weight:300;font-stretch:normal;font-family:Montserrat;-inkscape-font-specification:'Montserrat Light';fill:#ffffff"
           id="path8353"
           inkscape:connector-curvature="0" /><path
           d="m 4756.9978,-7630.9244 0,283.0523 113.2209,0 c 83.2983,0 146.7829,-61.0584 146.7829,-141.5261 0,-80.4678 -63.0803,-141.5262 -145.5698,-141.5262 l -114.434,0 z m 32.3488,31.1358 81.2765,0 c 63.4846,0 113.6253,47.3101 113.6253,110.7947 0,63.0803 -49.332,110.3904 -112.4122,110.3904 l -82.4896,0 0,-221.1851 z"
           style="font-style:normal;font-variant:normal;font-weight:300;font-stretch:normal;font-family:Montserrat;-inkscape-font-specification:'Montserrat Light';fill:#ffffff"
           id="path8355"
           inkscape:connector-curvature="0" /><path
           d="m 5155.7227,-7561.7788 c -61.8671,0 -105.5381,44.0753 -105.5381,107.5599 0,63.4846 43.2666,107.5599 105.9425,107.5599 35.5837,0 65.5064,-12.9395 85.7244,-35.5837 l -17.3875,-18.6006 c -16.5788,17.3875 -39.6273,26.6878 -65.9107,26.6878 -41.2448,0 -71.5719,-26.2834 -77.2329,-67.9326 l 173.875,0 c 3.2349,-72.3805 -30.7314,-120.095 -99.4727,-119.6907 z m -74.4023,93.8117 c 4.8523,-40.4361 33.9663,-66.7195 74.4023,-66.7195 41.6492,0 69.1457,25.8791 71.1675,66.7195 l -145.5698,0 z"
           style="font-style:normal;font-variant:normal;font-weight:300;font-stretch:normal;font-family:Montserrat;-inkscape-font-specification:'Montserrat Light';fill:#ffffff"
           id="path8357"
           inkscape:connector-curvature="0" /><path
           d="m 5424.9826,-7562.1831 c -37.2012,0 -66.3151,17.3875 -82.0852,47.3102 l 0,-46.0971 -31.5401,0 0,291.5439 31.5401,0 0,-124.1387 c 15.7701,29.5183 44.884,46.9058 82.8939,46.9058 60.2497,0 101.4945,-44.0753 101.4945,-107.1555 0,-63.889 -42.0535,-108.3686 -102.3032,-108.3686 z m -5.6611,186.8145 c -44.884,0 -76.4241,-32.7532 -76.4241,-79.2546 0,-46.0971 31.5401,-79.2547 76.4241,-79.2547 44.4797,0 76.0198,33.5619 76.0198,79.2547 0,46.0971 -31.5401,79.2546 -76.0198,79.2546 z"
           style="font-style:normal;font-variant:normal;font-weight:300;font-stretch:normal;font-family:Montserrat;-inkscape-font-specification:'Montserrat Light';fill:#ffffff"
           id="path8359"
           inkscape:connector-curvature="0" /><path
           d="m 5714.8206,-7347.8721 30.7314,0 -0.4043,-140.7174 c -0.4044,-45.6927 -29.5184,-73.5936 -82.0852,-73.5936 -36.3925,0 -59.441,10.5134 -86.9375,28.7096 l 13.3439,23.0485 c 22.2398,-15.3657 44.0753,-24.2616 67.5282,-24.2616 37.6055,0 57.0148,18.6006 57.0148,49.7363 l 0,12.5352 -69.9544,0 c -50.1407,0.4044 -79.659,23.8573 -79.659,61.0584 0,36.7968 28.3053,65.1021 72.3806,65.1021 33.9662,0 61.0584,-11.3221 78.0415,-34.3707 l 0,32.7532 z m -71.9761,-25.879 c -29.9227,0 -48.9277,-15.3657 -48.9277,-38.8186 0,-23.453 18.6006,-34.3707 54.1843,-34.3707 l 66.3152,0 0,25.4747 c -8.0872,29.5183 -35.5838,47.7146 -71.5718,47.7146 z"
           style="font-style:normal;font-variant:normal;font-weight:300;font-stretch:normal;font-family:Montserrat;-inkscape-font-specification:'Montserrat Light';fill:#ffffff"
           id="path8361"
           inkscape:connector-curvature="0" /><path
           d="m 5847.1158,-7560.97 -31.5401,0 0,213.0979 31.5401,0 0,-113.2209 c 3.6393,-42.0535 31.5401,-69.9544 76.4242,-69.1456 l 0,-31.9445 c -35.9881,0.4043 -62.2716,17.3875 -76.4242,48.5232 l 0,-47.3101 z"
           style="font-style:normal;font-variant:normal;font-weight:300;font-stretch:normal;font-family:Montserrat;-inkscape-font-specification:'Montserrat Light';fill:#ffffff"
           id="path8363"
           inkscape:connector-curvature="0" /><path
           d="m 6066.7215,-7387.9038 c -11.7265,7.2785 -23.0486,10.9178 -33.9663,10.9178 -18.1962,0 -28.3052,-9.7047 -28.3052,-35.5837 l 0,-116.0515 67.5282,0 0,-25.8791 -67.5282,0.4044 0,-56.2061 -31.1358,0 0,56.2061 -30.7314,0 0,25.4747 30.7314,0 0,121.7125 c 0,42.0535 23.0486,60.6541 54.1843,60.6541 16.9832,-0.4044 33.1576,-6.0654 48.1189,-16.1744 l -8.8959,-25.4748 z"
           style="font-style:normal;font-variant:normal;font-weight:300;font-stretch:normal;font-family:Montserrat;-inkscape-font-specification:'Montserrat Light';fill:#ffffff"
           id="path8365"
           inkscape:connector-curvature="0" /><path
           d="m 6396.5278,-7562.1831 c -40.8404,0.4043 -70.7631,18.1962 -84.107,55.8017 -8.8959,-35.1793 -36.3924,-55.8017 -76.4241,-55.8017 -38.4142,0.4043 -67.1238,16.1744 -81.2764,49.332 l 0,-48.1189 -31.1358,0 0,213.0979 31.1358,0 0,-104.7293 c 0,-45.6928 26.2834,-77.2329 69.9543,-78.446 37.2012,0 59.0366,22.2399 59.0366,60.2497 l 0,122.9256 31.9445,0 0,-104.7293 c 0,-45.6928 25.4747,-77.2329 69.55,-78.446 36.7968,0 59.0367,22.2399 59.0367,60.2497 l 0,122.9256 31.5401,0 0,-131.4171 c 0,-51.3538 -29.5183,-82.8939 -79.2547,-82.8939 z"
           style="font-style:normal;font-variant:normal;font-weight:300;font-stretch:normal;font-family:Montserrat;-inkscape-font-specification:'Montserrat Light';fill:#ffffff"
           id="path8367"
           inkscape:connector-curvature="0" /><path
           d="m 6630.2169,-7561.7788 c -61.8672,0 -105.5381,44.0753 -105.5381,107.5599 0,63.4846 43.2666,107.5599 105.9424,107.5599 35.5838,0 65.5064,-12.9395 85.7244,-35.5837 l -17.3875,-18.6006 c -16.5787,17.3875 -39.6273,26.6878 -65.9107,26.6878 -41.2448,0 -71.5718,-26.2834 -77.2329,-67.9326 l 173.875,0 c 3.2349,-72.3805 -30.7314,-120.095 -99.4726,-119.6907 z m -74.4024,93.8117 c 4.8524,-40.4361 33.9663,-66.7195 74.4024,-66.7195 41.6491,0 69.1456,25.8791 71.1674,66.7195 l -145.5698,0 z"
           style="font-style:normal;font-variant:normal;font-weight:300;font-stretch:normal;font-family:Montserrat;-inkscape-font-specification:'Montserrat Light';fill:#ffffff"
           id="path8369"
           inkscape:connector-curvature="0" /><path
           d="m 6897.8593,-7562.1831 c -38.8186,0.4043 -67.5282,15.77 -82.4896,48.1189 l 0,-46.9058 -31.5401,0 0,213.0979 31.5401,0 0,-114.434 c 3.6393,-40.436 29.5183,-67.9325 71.5718,-68.3369 37.6056,0 60.2497,22.2398 60.2497,59.8453 l 0,122.9256 31.5402,0 0,-131.4171 c 0,-51.3538 -29.9227,-82.8939 -80.8721,-82.8939 z"
           style="font-style:normal;font-variant:normal;font-weight:300;font-stretch:normal;font-family:Montserrat;-inkscape-font-specification:'Montserrat Light';fill:#ffffff"
           id="path8371"
           inkscape:connector-curvature="0" /><path
           d="m 7150.2811,-7387.9038 c -11.7265,7.2785 -23.0486,10.9178 -33.9663,10.9178 -18.1962,0 -28.3053,-9.7047 -28.3053,-35.5837 l 0,-116.0515 67.5282,0 0,-25.8791 -67.5282,0.4044 0,-56.2061 -31.1357,0 0,56.2061 -30.7314,0 0,25.4747 30.7314,0 0,121.7125 c 0,42.0535 23.0485,60.6541 54.1843,60.6541 16.9831,-0.4044 33.1576,-6.0654 48.1189,-16.1744 l -8.8959,-25.4748 z"
           style="font-style:normal;font-variant:normal;font-weight:300;font-stretch:normal;font-family:Montserrat;-inkscape-font-specification:'Montserrat Light';fill:#ffffff"
           id="path8373"
           inkscape:connector-curvature="0" /></g></g></g></svg>